<?xml version="1.0" standalone="no"?>
<!DOCTYPE svg PUBLIC "-//W3C//DTD SVG 1.1//EN" "http://www.w3.org/Graphics/SVG/1.1/DTD/svg11.dtd" >
<svg xmlns="http://www.w3.org/2000/svg">
<metadata></metadata>
<defs>
<font id="chalet-londonnineteenseventRg" horiz-adv-x="1302" >
<font-face units-per-em="2048" ascent="1638" descent="-410" />
<missing-glyph horiz-adv-x="591" />
<glyph horiz-adv-x="2048" />
<glyph horiz-adv-x="2048" />
<glyph horiz-adv-x="682" />
<glyph horiz-adv-x="794" d="M86 1475q4 -57 27.5 -105.5t64.5 -84.5t96.5 -56.5t122.5 -20.5q68 0 123 20.5t96 56.5t65 84.5t28 105.5h-88q-16 -70 -67.5 -109t-156.5 -39q-86 0 -139 39t-76 109h-96z" />
<glyph horiz-adv-x="358" d="M86 1217h186v204h-186v-204z" />
<glyph horiz-adv-x="563" d="M86 1767q0 -41 15.5 -75.5t41 -61t61.5 -42t77 -15.5t76.5 15.5t62 42t42 61t15.5 75.5q0 82 -57.5 139.5t-138.5 57.5q-82 0 -138.5 -57.5t-56.5 -139.5zM176 1767q0 45 31 76t74 31t73.5 -31t30.5 -76q0 -43 -30.5 -73.5t-73.5 -30.5t-74 30.5t-31 73.5z" />
<glyph unicode="&#xa;" horiz-adv-x="851" d="M86 1196h137l211 279h-213zM418 1196h137l211 279h-213z" />
<glyph horiz-adv-x="460" d="M85 -247q1 -40 17 -70q16 -33 48 -50.5t70 -21.5t78 6t77 35v72q-49 -31 -102.5 -28t-71.5 38q-12 23 -7 55.5t26.5 68.5t59 72.5t91.5 69.5h-113q-61 -35 -100 -78t-56.5 -86t-16.5 -83z" />
<glyph horiz-adv-x="749" d="M86 1487l213 -293h152l213 293h-158l-131 -187l-131 187h-158z" />
<glyph unicode="&#xd;" horiz-adv-x="1024" />
<glyph horiz-adv-x="409" d="M102 571h205v213h-205v-213z" />
<glyph horiz-adv-x="1044" d="M131 0h172v885h418v-885h172v1051h-590v41q0 53 12.5 116.5t53.5 100.5q59 55 178 47v157q-184 20 -295 -79q-121 -109 -121 -342v-1092zM721 1214h172v132q0 35 -24.5 59.5t-61.5 24.5t-61.5 -25t-24.5 -59v-132z" />
<glyph horiz-adv-x="1153" d="M131 0h172v885h240v166h-240v41q0 53 12.5 116.5t53.5 100.5q59 55 178 47v157q-184 20 -295 -79q-121 -109 -121 -342v-1092zM692 385q0 -100 31 -177t86 -127t132 -70.5t169 -10.5v164q-49 -2 -93 7t-78 34.5t-53.5 71t-19.5 114.5v1133h-174v-1139z" />
<glyph horiz-adv-x="1155" d="M20 481l179 109v-590h905v168h-731v526l344 207v137l-344 -209v592h-174v-696l-179 -107v-137z" />
<glyph horiz-adv-x="1067" d="M20 481l170 105v-160q0 -203 116 -314.5t310 -111.5h410v168h-410q-123 0 -187 65.5t-64 192.5v264l350 211v137l-350 -213v596h-175v-698l-170 -105v-137z" />
<glyph horiz-adv-x="1085" d="M55 0h975v168h-762l740 1096v157h-926v-166h713l-740 -1095v-160zM266 1880l213 -293h152l213 293h-158l-131 -186l-131 186h-158z" />
<glyph horiz-adv-x="962" d="M55 0h852v168h-618l600 729v158h-817v-166h590l-607 -744v-145zM219 1487l213 -293h152l213 293h-158l-131 -187l-131 187h-158z" />
<glyph unicode=" "  horiz-adv-x="591" />
<glyph unicode="&#x09;" horiz-adv-x="591" />
<glyph unicode="&#xa0;" horiz-adv-x="591" />
<glyph unicode="!" horiz-adv-x="555" d="M180 0h195v203h-195v-203zM190 362h175v1059h-175v-1059z" />
<glyph unicode="&#x22;" horiz-adv-x="649" d="M94 1421l29 -510h106l29 510h-164zM391 1421l29 -510h106l29 510h-164z" />
<glyph unicode="#" horiz-adv-x="1089" d="M12 336h176l-38 -260h165l39 260h273l-37 -260h166l39 260h174l22 162h-174l62 420h174l24 161h-174l39 267h-168l-39 -267h-272l39 267h-168l-37 -267h-176l-23 -161h174l-61 -420h-174zM379 498l59 420h275l-62 -420h-272z" />
<glyph unicode="$" horiz-adv-x="1009" d="M47 498q0 -197 148 -314q102 -78 241 -90v-119h117v119q158 12 256 90q66 49 100.5 119t34.5 154q0 80 -26.5 136t-76.5 96t-123 67.5t-165 48.5v358q90 -14 137 -67.5t47 -141.5h174q0 76 -24.5 140.5t-70.5 113.5t-112.5 81t-150.5 40v127h-117v-125 q-164 -16 -262 -108.5t-98 -233.5q0 -78 29.5 -133t78.5 -94t115 -64.5t137 -42.5v-393q-104 16 -160.5 78.5t-56.5 157.5h-172zM248 993q0 68 49 113t139 57v-332q-109 31 -148.5 70t-39.5 92zM553 262v369q72 -18 115 -38t65.5 -41.5t29.5 -46.5t7 -52q0 -74 -51 -126.5 t-166 -64.5z" />
<glyph unicode="%" horiz-adv-x="1658" d="M49 1077q0 -72 27.5 -134t75 -109.5t110 -74t133.5 -26.5q70 0 133.5 26.5t109.5 74t73.5 110t27.5 133.5q0 72 -27.5 134.5t-73.5 109.5t-109.5 73.5t-133.5 26.5q-72 0 -134 -26.5t-109.5 -73.5t-75 -109.5t-27.5 -134.5zM205 1077q0 41 15.5 77t41 63.5t60 43 t73.5 15.5t74 -15.5t60.5 -43t40 -63.5t14.5 -77t-14.5 -77.5t-40 -63.5t-60.5 -42t-74 -15t-73.5 15t-60 42t-41 63.5t-15.5 77.5zM356 0h166l781 1421h-166zM920 344q0 -72 26.5 -134.5t73.5 -109.5t109.5 -73.5t134.5 -26.5t134 26.5t109 73.5t74 109.5t27 134.5 t-27 134.5t-74 109.5t-109.5 74.5t-133.5 27.5q-72 0 -134.5 -27.5t-109.5 -74.5t-73.5 -109.5t-26.5 -134.5zM1073 344q0 41 15.5 78t41 63.5t60.5 42t74 15.5t73.5 -15.5t60 -42t41 -63.5t15.5 -78t-15.5 -77t-41 -63.5t-60 -43t-73.5 -15.5t-74 15.5t-60.5 43t-41 63.5 t-15.5 77z" />
<glyph unicode="&#x26;" horiz-adv-x="1327" d="M98 475q0 -102 41 -193.5t112 -159t165 -107.5t202 -40q113 0 211.5 38t174.5 106l96 -119h223l-213 258q27 53 41 110.5t14 120.5v181h-172v-172q0 -23 -2 -43.5t-8 -42.5l-465 567q-33 39 -51 78t-18 86q0 72 50 112.5t111 40.5q72 0 110 -47t38 -112l172 2 q0 70 -23.5 128t-66.5 100t-101.5 65.5t-128.5 23.5q-72 0 -133 -24.5t-106 -67.5t-71 -101.5t-26 -125.5q0 -74 25 -131.5t57 -100.5q-88 -59 -147 -131q-111 -139 -111 -299zM272 475q0 84 48.5 163t140.5 140l434 -528q-51 -51 -120.5 -81t-153.5 -30q-74 0 -137.5 27 t-110.5 73t-74 107.5t-27 128.5z" />
<glyph unicode="'" horiz-adv-x="352" d="M94 1421l29 -510h106l29 510h-164z" />
<glyph unicode="(" horiz-adv-x="643" d="M119 690q0 -133 24.5 -264t70.5 -252t109.5 -226.5t141.5 -185.5h153q-145 190 -228 427t-83 501t83 499.5t228 428.5h-153q-78 -80 -141.5 -185.5t-109.5 -226.5t-70.5 -253t-24.5 -263z" />
<glyph unicode=")" horiz-adv-x="643" d="M27 -238h151q78 80 141.5 185.5t109.5 226.5t70.5 252t24.5 264q0 131 -24.5 263t-70.5 253t-109.5 226.5t-141.5 185.5h-151q145 -193 227 -428.5t82 -499.5t-82 -500.5t-227 -427.5z" />
<glyph unicode="*" horiz-adv-x="710" d="M53 1083l207 4l-106 -176l102 -59l100 182l99 -182l104 59l-108 176l206 -2v117l-206 -4l108 178l-104 58l-101 -181l-98 181l-102 -58l106 -178l-207 4v-119z" />
<glyph unicode="+" horiz-adv-x="1042" d="M86 481h350v-352h172v352h350v168h-350v352h-172v-352h-350v-168z" />
<glyph unicode="," horiz-adv-x="409" d="M102 0h117v-47q0 -53 -26.5 -86t-75.5 -41v-88q35 2 69.5 17.5t61 41t43 64.5t16.5 92v258h-205v-211z" />
<glyph unicode="-" horiz-adv-x="735" d="M90 481h555v168h-555v-168z" />
<glyph unicode="." horiz-adv-x="409" d="M102 0h205v211h-205v-211z" />
<glyph unicode="/" horiz-adv-x="561" d="M-8 0h172l432 1524h-174z" />
<glyph unicode="0" horiz-adv-x="1572" d="M82 717q0 -160 55.5 -295t150.5 -234.5t224 -156t274 -56.5t274.5 56.5t224.5 156t150.5 235.5t55.5 294q0 162 -54.5 297t-149.5 233.5t-224.5 153.5t-276.5 55q-145 0 -274 -56.5t-224 -155.5t-150.5 -234.5t-55.5 -292.5zM254 717q0 119 42 223t114.5 182t169 123 t206.5 45q113 0 210.5 -44t169 -120.5t112.5 -182t41 -226.5q0 -119 -42 -223.5t-114.5 -183.5t-169 -124t-207.5 -45t-207 45t-168.5 124t-114.5 183.5t-42 223.5z" />
<glyph unicode="1" horiz-adv-x="659" d="M51 1255h166v-1255h174v1421h-340v-166z" />
<glyph unicode="2" horiz-adv-x="1046" d="M27 0h936v168h-551l295 313q78 86 128 150.5t78 122.5q33 61 47.5 123.5t14.5 138.5q0 86 -32 165t-91 140t-143 98t-191 37q-111 0 -198 -39t-147 -106.5t-93 -158.5t-33 -196h174q0 70 18.5 129.5t56.5 103.5t93 69.5t129 25.5q78 0 132.5 -26.5t88 -66.5t48 -87 t14.5 -88q0 -49 -8.5 -91t-32 -89.5t-67.5 -103.5t-113 -132z" />
<glyph unicode="3" horiz-adv-x="1140" d="M31 397q12 -109 62 -187.5t123 -130.5t161 -78t180 -26q111 0 206 38t163.5 105.5t107.5 161.5t39 207q0 92 -27.5 172t-76.5 142.5t-118 104.5t-151 61l324 454h-897v-166h559l-297 -432q147 18 244.5 -4t163.5 -80q53 -47 78.5 -110.5t25.5 -141.5q0 -76 -24.5 -139 t-69.5 -109t-108.5 -72t-139.5 -26q-147 0 -239.5 71t-116.5 185h-172z" />
<glyph unicode="4" horiz-adv-x="1169" d="M-8 313h803v-313h174v313h145v168h-145v940h-176zM322 481l473 660v-660h-473z" />
<glyph unicode="5" horiz-adv-x="1153" d="M51 395q12 -96 57.5 -174t115 -132t159.5 -84t190 -30q106 0 199.5 36t165.5 104q72 70 110.5 164.5t38.5 205.5q0 104 -35.5 196.5t-100 161t-155.5 109.5t-202 41q-84 0 -152.5 -21.5t-122.5 -60.5l80 344h590v166h-729l-172 -778h168q53 96 144.5 141t185.5 45 q74 0 134 -26.5t103 -73.5t66.5 -109.5t23.5 -134.5q0 -76 -24.5 -139t-69.5 -108t-107.5 -71t-138.5 -26q-141 0 -233 73t-115 181h-174z" />
<glyph unicode="6" horiz-adv-x="1148" d="M72 479q0 -104 40 -196.5t108.5 -160t160.5 -107.5t197 -40q104 0 196 40t159.5 107.5t107.5 160t40 196.5t-40 196.5t-107.5 160t-156.5 107.5t-187 40q-35 0 -68 -5t-61 -15l254 458h-197l-358 -653q-88 -162 -88 -289zM246 479q0 70 26.5 131.5t71.5 107.5t105.5 72.5 t128.5 26.5t128 -26.5t105 -72.5t70.5 -107.5t25.5 -131.5t-25.5 -131t-70.5 -107t-105.5 -73t-127.5 -27q-68 0 -128.5 27t-105.5 73t-71.5 107.5t-26.5 130.5z" />
<glyph unicode="7" horiz-adv-x="1093" d="M43 1255h741l-573 -1255h190l650 1421h-1008v-166z" />
<glyph unicode="8" horiz-adv-x="1134" d="M72 457q0 -100 39 -187.5t106.5 -153t157.5 -103.5t192 -38t192.5 38t157 103.5t105.5 153t39 187.5q0 139 -73 250.5t-191 173.5q53 43 84.5 105.5t31.5 135.5q0 70 -27.5 130.5t-74.5 105.5t-109.5 71.5t-134.5 26.5t-134 -26.5t-109.5 -71.5t-75 -105.5t-27.5 -130.5 q0 -74 32 -136t85 -105q-119 -59 -192.5 -172t-73.5 -252zM246 463q0 68 25.5 126t68.5 101t101.5 68.5t125.5 25.5q66 0 124.5 -25.5t102.5 -68.5t69.5 -101t25.5 -126q0 -66 -25.5 -124t-69.5 -101t-102.5 -69t-124.5 -26q-68 0 -126 26t-101 69t-68.5 101t-25.5 124z M391 1116q0 37 14.5 69t38 55.5t55 37.5t68.5 14t69 -14t56.5 -37.5t37.5 -55.5t13 -69t-13 -68.5t-37.5 -55t-56.5 -38t-69 -14.5t-68.5 14.5t-55 38t-38 55t-14.5 68.5z" />
<glyph unicode="9" horiz-adv-x="1148" d="M68 952q0 -104 39.5 -195t107.5 -160t157 -107.5t187 -38.5q70 0 131 18l-260 -469h197l362 664q47 84 67.5 153t20.5 135q0 104 -40 196.5t-108.5 160t-159.5 107.5t-196 40q-104 0 -196 -40t-161 -107.5t-108.5 -159.5t-39.5 -197zM242 952q0 70 25.5 131.5t70.5 107.5 t105.5 72.5t129.5 26.5q68 0 128.5 -26.5t105.5 -72.5t70.5 -107.5t25.5 -131.5t-25.5 -131t-70.5 -107t-105.5 -73t-128.5 -27q-70 0 -130 27t-105 73t-70.5 107.5t-25.5 130.5z" />
<glyph unicode=":" horiz-adv-x="464" d="M129 0h205v211h-205v-211zM129 807h205v211h-205v-211z" />
<glyph unicode=";" horiz-adv-x="464" d="M129 0h117v-47q0 -53 -26.5 -86t-76.5 -41v-88q37 2 71 17.5t60.5 41t43 64.5t16.5 92v258h-205v-211zM129 807h205v211h-205v-211z" />
<glyph unicode="&#x3c;" horiz-adv-x="921" d="M63 471l793 -358v182l-623 268v2l623 269v182l-793 -357v-188z" />
<glyph unicode="=" horiz-adv-x="991" d="M90 283h811v166h-811v-166zM90 682h811v168h-811v-168z" />
<glyph unicode="&#x3e;" horiz-adv-x="929" d="M72 113l794 358v188l-794 357v-182l46 -20q46 -19 115.5 -50t150.5 -65.5t150.5 -64.5t92.5 -40l69 -31l-624 -268v-182z" />
<glyph unicode="?" horiz-adv-x="1069" d="M63 1036h175q0 115 76.5 184.5t211.5 69.5q139 0 208 -63.5t69 -173.5q0 -41 -10.5 -72t-31 -57.5t-48 -51t-64.5 -53.5q-47 -37 -91 -72.5t-76.5 -80.5t-52 -104.5t-19.5 -143.5v-56h168v56q0 55 12 94t34.5 69.5t54.5 57.5t73 55q37 27 76.5 59.5t72.5 75.5t53.5 99.5 t20.5 130.5q0 82 -30 154.5t-87 127t-141 85t-191 30.5q-109 0 -193.5 -33.5t-145 -91t-92.5 -134.5t-32 -161zM395 0h197v203h-197v-203z" />
<glyph unicode="@" horiz-adv-x="1548" d="M78 707q0 -162 54 -296.5t150.5 -231.5t229.5 -150.5t291 -53.5q207 0 373.5 87.5t265.5 242.5h-189q-80 -86 -197.5 -136t-252.5 -50q-129 0 -233.5 44t-180.5 121.5t-117 186.5t-41 236q0 119 44 228t121 193t182.5 133.5t226.5 49.5q125 0 220 -40t160.5 -106.5 t99.5 -154.5t34 -187q0 -80 -19.5 -143.5t-52.5 -109.5t-75 -70.5t-87 -24.5t-67 29t-6 88q0 4 12 42t32.5 102.5t41 132t40 128t29.5 90.5h-147l-25 -81q-23 51 -69.5 79.5t-110.5 28.5q-61 0 -123.5 -27.5t-118 -76.5t-98.5 -117t-67 -148q-27 -92 -19 -167.5t40 -130 t85 -84t117 -29.5q70 0 137.5 36t118.5 97q18 -57 67.5 -95t132.5 -38q66 0 134.5 32.5t124 95t91.5 153t36 202.5q0 141 -49.5 259t-137.5 202t-211 131t-270 47q-145 0 -277.5 -56.5t-231.5 -156.5t-158.5 -237.5t-59.5 -298.5zM551 707q12 51 39.5 98t62.5 84t75 58.5 t81 21.5q39 0 61.5 -20.5t32.5 -54.5t8 -75t-12 -82q-12 -47 -33.5 -93t-51.5 -82t-68.5 -58.5t-83.5 -22.5q-68 0 -102 59.5t-9 166.5z" />
<glyph unicode="A" d="M150 0h174v528h655v-528h174v954q0 106 -38 197.5t-104.5 159t-158.5 106.5t-201 39t-201 -39t-158.5 -106.5t-104 -158.5t-37.5 -198v-954zM324 696v258q0 70 24.5 130.5t68.5 106.5t104.5 72.5t129.5 26.5q72 0 132.5 -26.5t103.5 -72.5t67.5 -106.5t24.5 -130.5v-258 h-655z" />
<glyph unicode="B" horiz-adv-x="1191" d="M150 0h540q94 0 173 33t134.5 90t86 132t30.5 159q0 121 -57.5 214t-169.5 138q74 47 113.5 122t39.5 167q0 86 -32.5 159.5t-92 127t-140.5 84t-179 30.5q-94 0 -176 -35t-141.5 -94t-94 -139t-34.5 -170v-1018zM324 168v491h374q117 0 180.5 -70.5t63.5 -174.5 q0 -53 -18.5 -97.5t-50 -78t-76.5 -52t-99 -18.5h-374zM324 827v191q0 55 20.5 104t57 86t86 59.5t108.5 22.5q123 0 197.5 -67.5t74.5 -167.5q0 -57 -19.5 -100.5t-53 -71t-77.5 -42t-91 -14.5h-303z" />
<glyph unicode="C" horiz-adv-x="1488" d="M82 717q0 -154 55.5 -289t150.5 -235.5t224 -159t274 -58.5q115 0 217.5 34t186.5 95.5t147.5 149.5t100.5 197h-183q-66 -141 -188.5 -224.5t-280.5 -83.5q-111 0 -207 45t-168.5 124t-114.5 183.5t-42 221.5t42 221t114.5 183t169 124t206.5 45q174 0 292 -86t177 -221 h183q-35 104 -95.5 191.5t-143.5 149.5t-187.5 97t-225.5 35q-145 0 -274 -58.5t-224 -158.5t-150.5 -234.5t-55.5 -287.5z" />
<glyph unicode="D" horiz-adv-x="1335" d="M166 0h446q147 0 266 49t203 141.5t129 224.5t45 298t-45 297t-129 222t-202.5 140t-266.5 49h-446v-1421zM338 168v1087h274q96 0 181.5 -29.5t148 -95t99 -169t36.5 -248.5q0 -143 -35.5 -245.5t-98 -169.5t-147.5 -98.5t-184 -31.5h-274z" />
<glyph unicode="E" horiz-adv-x="1169" d="M133 426q0 -203 116 -314.5t310 -111.5h504v168h-504q-123 0 -187.5 66.5t-64.5 191.5v205h666v162h-666v202q0 127 64.5 193.5t187.5 66.5h504v166h-504q-195 0 -310.5 -110.5t-115.5 -315.5v-569z" />
<glyph unicode="F" horiz-adv-x="1056" d="M150 0h174v629h581v162h-581v204q0 127 64.5 193.5t186.5 66.5h418v166h-418q-195 0 -310 -110.5t-115 -315.5v-995z" />
<glyph unicode="G" horiz-adv-x="1556" d="M82 717q0 -154 55.5 -289t151.5 -235.5t224 -159t275 -58.5q154 0 281 51.5t218 146.5t141.5 229.5t50.5 297.5v74h-680v-168h501q-10 -98 -49 -183t-105.5 -147.5t-156.5 -97.5t-201 -35t-208 45t-169.5 124t-114.5 183.5t-42 221.5t42 220t114.5 182t170 124t207.5 45 q160 0 284 -82t190 -223h184q-41 117 -109.5 206t-154.5 148.5t-186.5 89t-207.5 29.5q-147 0 -275 -58.5t-224 -158.5t-151.5 -234.5t-55.5 -287.5z" />
<glyph unicode="H" horiz-adv-x="1361" d="M166 0h174v662h684v-662h172v1421h-172v-592h-684v592h-174v-1421z" />
<glyph unicode="I" horiz-adv-x="522" d="M174 0h174v1421h-174v-1421z" />
<glyph unicode="J" horiz-adv-x="923" d="M47 0h301q197 0 311.5 111.5t114.5 314.5v995h-172v-995q0 -127 -65.5 -192.5t-188.5 -65.5h-301v-168z" />
<glyph unicode="K" horiz-adv-x="1316" d="M147 0h175v627h442q80 0 128 -20.5t72.5 -51.5t32 -68.5t7.5 -72.5v-414h174v414q0 104 -36 178t-102 119q66 45 102 118.5t36 178.5v413h-174v-413q0 -35 -7.5 -72t-32 -68.5t-72.5 -52t-128 -20.5h-442v626h-175v-1421z" />
<glyph unicode="L" horiz-adv-x="1036" d="M150 426q0 -203 115.5 -314.5t309.5 -111.5h410v168h-410q-123 0 -187 65.5t-64 192.5v995h-174v-995z" />
<glyph unicode="M" horiz-adv-x="2039" d="M150 0h174v979q0 63 23.5 119.5t64.5 99.5t96 67.5t121 24.5t122 -24.5t97 -67.5t63.5 -99.5t22.5 -119.5v-979h174v979q0 63 22.5 119.5t63.5 99.5t97.5 67.5t121.5 24.5q66 0 121 -24.5t96 -67.5t64.5 -99.5t23.5 -119.5v-979h172v979q0 98 -36.5 185t-100 151.5 t-152 102.5t-188.5 38q-129 0 -231.5 -58.5t-161.5 -156.5q-59 98 -160.5 156.5t-230.5 58.5q-102 0 -189.5 -38t-152 -102.5t-101 -151.5t-36.5 -185v-979z" />
<glyph unicode="N" d="M150 0h174v958q0 70 25.5 131.5t70.5 105.5t104.5 69.5t126.5 25.5q68 0 127.5 -25.5t104.5 -69.5t70.5 -105.5t25.5 -131.5v-958h174v958q0 106 -39 197.5t-106.5 158t-159 104.5t-197.5 38t-197.5 -38t-159 -104.5t-106 -157.5t-38.5 -198v-958z" />
<glyph unicode="O" horiz-adv-x="1572" d="M82 717q0 -156 55.5 -291t150.5 -235.5t224 -158t274 -57.5t274.5 57.5t224.5 158t150.5 235.5t55.5 291q0 158 -54.5 293t-149.5 234t-224.5 155.5t-276.5 56.5q-145 0 -274 -57.5t-224 -157.5t-150.5 -234.5t-55.5 -289.5zM254 717q0 121 42 225.5t114.5 182t169 121.5 t206.5 44q113 0 210.5 -44t169 -120.5t112.5 -181t41 -227.5q0 -121 -42 -225.5t-114.5 -182.5t-169 -122t-207.5 -44t-207 44t-168.5 121t-114.5 182.5t-42 226.5z" />
<glyph unicode="P" horiz-adv-x="1224" d="M150 0h174v528h331q113 0 203 33t153.5 94.5t97.5 147.5t34 192q0 96 -39 180.5t-106.5 146.5t-157.5 98t-193 36q-109 0 -200 -38t-157.5 -104.5t-103 -158.5t-36.5 -201v-954zM324 698v256q0 76 24.5 138.5t67.5 106.5t102.5 67.5t128.5 23.5q70 0 129.5 -23.5 t102.5 -63.5t66.5 -93.5t23.5 -114.5q0 -133 -80 -215t-236 -82h-329z" />
<glyph unicode="Q" horiz-adv-x="1572" d="M82 717q0 -143 48 -270.5t131 -224.5t195.5 -160.5t243.5 -81.5v-187h172v187q131 16 244 79.5t196 161.5t131 225t48 271q0 158 -54.5 293t-149.5 234t-224 155.5t-277 56.5q-145 0 -274 -57.5t-224 -157.5t-150.5 -234.5t-55.5 -289.5zM254 717q0 121 42 225.5 t114.5 182t169 121.5t206.5 44q113 0 210.5 -44t169 -120.5t112.5 -181t41 -227.5q0 -109 -35 -205t-94.5 -171t-141 -125t-176.5 -66v169h-172v-169q-96 16 -177 66t-141 125t-94 171t-34 205z" />
<glyph unicode="R" horiz-adv-x="1255" d="M150 0h174v528h462q78 0 116 -43t38 -104v-381h174v393q0 86 -36.5 147.5t-104.5 98.5q82 55 126 144t44 212q0 96 -39 180.5t-106.5 146.5t-158.5 98t-194 36q-109 0 -199 -38t-156.5 -104.5t-103 -158.5t-36.5 -201v-954zM324 696v258q0 76 24.5 138.5t67.5 106.5 t101 67.5t128 23.5q72 0 131.5 -23.5t102.5 -63.5t66.5 -93t23.5 -115q0 -133 -77 -216t-235 -83h-333z" />
<glyph unicode="S" horiz-adv-x="1091" d="M12 -2h15q91 0 195 22q112 24 204 101q57 47 97 103.5t65.5 128t37 159.5t11.5 201q0 102 9.5 175t28.5 125t47 89t62 67q88 80 295 82v170h-28q-125 1 -221 -31q-108 -36 -191 -120q-90 -88 -133 -219t-43 -338q0 -104 -10.5 -179t-30 -127.5t-47 -89t-62.5 -65.5 q-51 -41 -123.5 -61.5t-177.5 -20.5v-172z" />
<glyph unicode="T" horiz-adv-x="1136" d="M35 1255h446v-1255h174v1255h447v166h-1067v-166z" />
<glyph unicode="U" horiz-adv-x="1372" d="M141 510q0 -119 39 -217t110.5 -169t172 -110t223.5 -39q121 0 221.5 39t172 110t111.5 169t40 217v911h-174v-911q0 -80 -24.5 -146.5t-72 -115.5t-116 -77t-158.5 -28t-158.5 28t-117 77t-73 115.5t-24.5 146.5v911h-172v-911z" />
<glyph unicode="V" horiz-adv-x="1249" d="M8 1421l524 -1421h187l522 1421h-186l-430 -1206l-428 1206h-189z" />
<glyph unicode="W" horiz-adv-x="2023" d="M141 453q0 -98 37 -185.5t101.5 -152t151.5 -102.5t190 -38q129 0 230 59.5t161 158.5q59 -98 160.5 -158t230.5 -60q102 0 189 38t151.5 102.5t101.5 151.5t37 186v968h-172v-968q0 -63 -23.5 -120t-64.5 -98.5t-97.5 -66.5t-121.5 -25q-66 0 -121 25t-96 66.5t-63.5 98 t-22.5 120.5v968h-174v-968q0 -63 -22.5 -120t-63.5 -98.5t-97.5 -66.5t-121.5 -25q-66 0 -122.5 25t-97.5 66.5t-63.5 98t-22.5 120.5v968h-174v-968z" />
<glyph unicode="X" horiz-adv-x="1275" d="M143 0h174v293q0 70 22.5 130t64.5 105t101.5 72t133.5 27q76 0 135.5 -27t100 -72t63.5 -105.5t23 -129.5v-293h172v293q0 133 -56.5 242.5t-154.5 175.5q98 68 154.5 176t56.5 241v293h-172v-293q0 -70 -23 -130t-63.5 -105t-100 -71.5t-135.5 -26.5q-74 0 -133.5 26.5 t-101.5 71.5t-64.5 105.5t-22.5 129.5v293h-174v-293q0 -133 56.5 -241.5t154.5 -175.5q-98 -66 -154.5 -175.5t-56.5 -242.5v-293z" />
<glyph unicode="Y" horiz-adv-x="1202" d="M106 1030q0 -96 30 -180t84 -149.5t129 -109.5t167 -59v-532h174v535q90 14 165 58t128 109.5t83 149.5t30 178v391h-174v-391q0 -70 -21.5 -130t-63.5 -106t-101.5 -73t-133.5 -27t-133 27t-101 73t-65.5 106.5t-23.5 129.5v391h-173v-391z" />
<glyph unicode="Z" horiz-adv-x="1085" d="M55 0h975v168h-762l740 1096v157h-926v-166h713l-740 -1095v-160z" />
<glyph unicode="[" horiz-adv-x="634" d="M158 -174h434v149h-260v1481h260v152h-434v-1782z" />
<glyph unicode="\" horiz-adv-x="561" d="M-35 1524l432 -1524h172l-430 1524h-174z" />
<glyph unicode="]" horiz-adv-x="634" d="M43 -25v-149h434v1782h-434v-152h260v-1481h-260z" />
<glyph unicode="^" horiz-adv-x="1050" d="M68 528h186l272 699l271 -699h186l-365 893h-184z" />
<glyph unicode="_" horiz-adv-x="1804" d="M0 -141v-168h1804v168h-1804z" />
<glyph unicode="`" horiz-adv-x="854" d="M207 1505l252 -270h135l-178 270h-209z" />
<glyph unicode="a" horiz-adv-x="1245" d="M72 526q0 -119 41 -220t112.5 -175t167.5 -116t205 -42q113 0 208 52.5t157 138.5v-164h167v526q0 117 -40.5 218.5t-111.5 176t-167 117.5t-209 43q-111 0 -207 -42t-167.5 -116.5t-113.5 -176t-42 -220.5zM246 526q0 82 27.5 155t76.5 126t113.5 84t138.5 31 q72 0 136.5 -31t113.5 -85t77.5 -126t28.5 -154t-28.5 -152.5t-76.5 -123.5t-112.5 -84t-138.5 -31t-138.5 30t-113.5 83t-76.5 123.5t-27.5 154.5z" />
<glyph unicode="b" horiz-adv-x="1230" d="M100 530q0 -117 41 -218t113 -176t168 -118t209 -43q109 0 205 42t167.5 117t113.5 176t42 220t-41 219.5t-112.5 174t-167 115.5t-205.5 42q-111 0 -205 -48t-160 -130v621h-168v-994zM274 530q0 82 29 153t77 124t112.5 84t138.5 31t138.5 -31t112.5 -83t75.5 -124 t27.5 -154q0 -84 -27.5 -155.5t-75.5 -124.5t-112.5 -84t-138.5 -31q-72 0 -136.5 31t-113.5 85t-78 126t-29 153z" />
<glyph unicode="c" horiz-adv-x="1153" d="M72 526q0 -115 42 -215t113.5 -175t168 -118t204.5 -43q178 0 308.5 96.5t183.5 256.5h-187q-43 -86 -121.5 -136.5t-183.5 -50.5q-74 0 -138.5 30t-112.5 82t-75.5 122.5t-27.5 150.5t27.5 151t75.5 124t112.5 83.5t138.5 30.5q104 0 182 -50t123 -136h187 q-27 80 -74 144.5t-110.5 110.5t-141.5 71.5t-166 25.5q-109 0 -205 -44t-167.5 -118.5t-113.5 -176t-42 -216.5z" />
<glyph unicode="d" horiz-adv-x="1230" d="M72 530q0 -119 42 -220t113.5 -176t168 -117t206.5 -42q113 0 209 43t167 118t111.5 176.5t40.5 217.5v994h-167v-621q-66 82 -160 130t-205 48q-109 0 -205 -42t-167.5 -115.5t-112.5 -174t-41 -219.5zM246 530q0 82 27.5 154t76.5 124t113.5 83t138.5 31t138.5 -31 t112.5 -84t76.5 -124t28.5 -153t-28.5 -153.5t-77.5 -125.5t-113.5 -85t-136.5 -31q-74 0 -138.5 31t-113.5 84t-76.5 124.5t-27.5 155.5z" />
<glyph unicode="e" horiz-adv-x="1189" d="M72 526q0 -117 42 -217t114.5 -174t171 -117t212.5 -43q184 0 312.5 91.5t189.5 261.5h-180q-51 -92 -130 -140.5t-192 -48.5q-92 0 -173 43t-132 123l809 342q-23 102 -74 183t-120.5 136.5t-151.5 85t-168 29.5q-111 0 -207 -44t-167.5 -118.5t-113.5 -176t-42 -216.5z M246 528q0 90 31.5 163t83 123t115 77t126.5 27q90 0 171 -50.5t130 -136.5l-651 -274q-6 32 -6 71z" />
<glyph unicode="f" horiz-adv-x="577" d="M131 0h172v885h240v166h-240v41q0 53 12.5 116.5t53.5 100.5q52 48 149 48q14 0 29 -1v157q-31 3 -60 3q-143 0 -235 -82q-121 -109 -121 -342v-1092z" />
<glyph unicode="g" horiz-adv-x="1249" d="M72 526q0 -119 41 -220t112.5 -175t167.5 -116t205 -42q115 0 207 47.5t153 129.5v-101q0 -72 -19 -143.5t-63.5 -128t-115 -92t-172.5 -35.5q-29 0 -72 6t-88 24.5t-86 54.5t-68 95h-184q20 -80 66.5 -144.5t111 -109.5t146.5 -69.5t174 -24.5q123 0 222 41t171 115.5 t110.5 179t38.5 231.5v477q0 117 -40.5 218.5t-111.5 176t-167 117.5t-209 43q-111 0 -207 -42t-167.5 -116.5t-113.5 -176t-42 -220.5zM246 526q0 82 27.5 155t76.5 126t113.5 84t138.5 31q72 0 136.5 -31t113.5 -85t77.5 -126t28.5 -154t-28.5 -152.5t-76.5 -123.5 t-112.5 -84t-138.5 -31t-138.5 30t-113.5 83t-76.5 123.5t-27.5 154.5z" />
<glyph unicode="h" horiz-adv-x="1163" d="M145 0h172v645q0 59 21.5 109.5t58.5 87.5t87.5 58.5t109.5 21.5q129 0 193.5 -79t64.5 -202v-641h174v635q0 98 -26.5 180t-79 141.5t-128 92t-174.5 32.5q-92 0 -169.5 -35.5t-131.5 -97.5v576h-172v-1524z" />
<glyph unicode="i" horiz-adv-x="477" d="M152 0h174v1055h-174v-1055zM152 1214h174v132q0 35 -26 59.5t-62 24.5q-35 0 -60.5 -25t-25.5 -59v-132z" />
<glyph unicode="j" horiz-adv-x="456" d="M-6 -297v-162q19 -1 36 -1q63 0 110 16q61 22 100 63t57 100.5t18 130.5v1205h-174v-1209q0 -80 -37 -114q-34 -29 -95 -29h-15zM141 1214h174v132q0 35 -25.5 59.5t-62.5 24.5q-35 0 -60.5 -25t-25.5 -59v-132z" />
<glyph unicode="k" horiz-adv-x="1138" d="M145 0h172v446h248q129 0 203 -60t74 -206v-180h172v168q-1 269 -187 371q90 55 138.5 146t48.5 206v164h-172v-176q0 -119 -74 -195t-203 -76h-248v916h-172v-1524z" />
<glyph unicode="l" horiz-adv-x="583" d="M125 385q0 -100 30.5 -177t86.5 -127q55 -51 132 -71q52 -14 110 -13q29 0 59 3v164h-18q-41 0 -77 7q-46 9 -79 34.5t-52.5 71t-19.5 114.5v1133h-172v-1139z" />
<glyph unicode="m" horiz-adv-x="1714" d="M137 0h174v682q0 104 62.5 172t167.5 68q104 0 166.5 -68t62.5 -172v-682h174v682q0 104 62.5 172t167.5 68q104 0 166.5 -68t62.5 -172v-682h174v676q0 86 -29.5 159.5t-83 129t-127 86t-163.5 30.5q-109 0 -190 -47t-128 -127q-47 80 -127 127t-188 47 q-90 0 -164 -30.5t-127 -86t-83 -129t-30 -159.5v-676z" />
<glyph unicode="n" horiz-adv-x="1148" d="M135 0h172v647q0 119 73 196t195 77q123 0 195 -77t72 -196v-647h172v641q0 100 -33 181t-91.5 138.5t-139 89t-175.5 31.5q-94 0 -175 -31.5t-139 -89t-92 -138.5t-34 -181v-641z" />
<glyph unicode="o" horiz-adv-x="1206" d="M72 524q0 -115 41 -214t112.5 -175t167.5 -119t209 -43t210 43t168 119t112 175.5t41 213.5q0 115 -41 216.5t-112 177t-168 119.5t-210 44t-209 -44t-167.5 -119.5t-112.5 -177t-41 -216.5zM248 524q0 80 27.5 152t75.5 125t112.5 83.5t138.5 30.5t138.5 -30.5 t113.5 -83.5t76.5 -125t27.5 -152t-27.5 -149.5t-76.5 -121.5t-113.5 -82t-138.5 -30t-138.5 30t-112.5 82t-75.5 121.5t-27.5 149.5z" />
<glyph unicode="p" horiz-adv-x="1230" d="M100 -469h168v621q66 -80 160 -129.5t205 -49.5t206 42t166.5 116t112.5 175t41 220t-42 220.5t-113.5 176t-168 116.5t-204.5 42q-113 0 -209 -43t-168 -117.5t-113 -176t-41 -218.5v-995zM274 526q0 82 29 154t78 125t113.5 84t136.5 31q74 0 138.5 -31t112.5 -83 t75.5 -125t27.5 -155q0 -84 -27.5 -155.5t-75.5 -123.5t-112.5 -83t-138.5 -31t-138.5 31t-112.5 84t-77 124.5t-29 153.5z" />
<glyph unicode="q" horiz-adv-x="1230" d="M72 526q0 -119 41 -220t112.5 -175t167.5 -116t205 -42q111 0 205 49.5t160 129.5v-621h167v995q0 117 -40.5 218.5t-111.5 176t-167 117.5t-209 43q-111 0 -207 -42t-167.5 -116.5t-113.5 -176t-42 -220.5zM246 526q0 82 27.5 155t76.5 125t113.5 83t138.5 31 q72 0 136.5 -31t113.5 -84t77.5 -125t28.5 -154t-28.5 -153.5t-76.5 -124.5t-112.5 -84t-138.5 -31t-138.5 31t-113.5 83t-76.5 123.5t-27.5 155.5z" />
<glyph unicode="r" horiz-adv-x="684" d="M135 0h172v631q0 153 89 225q74 59 192 60q25 0 51 -3v162q-35 4 -69 4q-66 1 -126 -15q-92 -24 -160.5 -81t-108.5 -147t-40 -209v-627z" />
<glyph unicode="s" horiz-adv-x="815" d="M31 0q18 -1 35 -1q79 1 149 23q86 28 147 87q72 68 102 165t30 254q0 68 6 117t16 83t24.5 56.5t32.5 40.5q41 39 95 51q46 10 98 9h18v170q-19 1 -38 1q-182 0 -293 -106q-72 -68 -101.5 -166t-29.5 -256q0 -68 -6.5 -117t-16.5 -82.5t-24.5 -55t-30.5 -37.5 q-36 -32 -90 -50q-44 -14 -98 -15q-12 0 -25 1v-172z" />
<glyph unicode="t" horiz-adv-x="587" d="M125 385q0 -100 30.5 -177t84.5 -127q55 -51 132 -71q52 -14 110 -13q29 0 59 3v160q-15 -1 -30 -1q-33 0 -63 6q-44 9 -78 34.5t-53.5 70.5t-19.5 115v504h240v166h-240v225h-172v-895z" />
<glyph unicode="u" horiz-adv-x="1153" d="M137 416q0 -100 34 -181t93.5 -138.5t140 -89.5t173.5 -32q92 0 172.5 32t140 89.5t93.5 138t34 181.5v639h-174v-639q0 -119 -72 -196t-194 -77q-123 0 -196 77t-73 196v639h-172v-639z" />
<glyph unicode="v" horiz-adv-x="993" d="M20 1055l383 -1055h187l383 1055h-185l-290 -824h-2l-291 824h-185z" />
<glyph unicode="w" horiz-adv-x="1714" d="M137 379q0 -86 30 -160t83 -128t127 -85t164 -31q109 0 188.5 46.5t126.5 128.5q47 -82 128 -128.5t190 -46.5q90 0 163.5 31t127 85t83 128t29.5 160v676h-174v-676q0 -102 -62.5 -169t-166.5 -67t-167 66.5t-63 169.5v676h-174v-676q0 -102 -62.5 -169t-166.5 -67 t-167 66.5t-63 169.5v676h-174v-676z" />
<glyph unicode="x" horiz-adv-x="1126" d="M137 0h172v184q0 115 65.5 188.5t188.5 73.5t188.5 -73.5t65.5 -188.5v-184h172v172q0 123 -47 213t-133 143q86 53 133 142.5t47 214.5v170h-172v-185q0 -115 -65.5 -188.5t-188.5 -73.5t-188.5 74t-65.5 188v185h-172v-170q0 -125 47 -214t133 -143q-86 -53 -133 -143 t-47 -213v-172z" />
<glyph unicode="y" horiz-adv-x="1159" d="M137 416q0 -100 34 -181t93.5 -138.5t140 -89.5t173.5 -32q168 0 266 105v-158q0 -123 -72 -197.5t-194 -74.5q-102 0 -166 47t-93 133h-176q14 -82 53.5 -146.5t96.5 -109.5t129 -68.5t156 -23.5q92 0 172.5 29.5t140 87t93.5 138.5t34 185v1133h-174v-639 q0 -119 -72 -196t-194 -77q-123 0 -196 77t-73 196v639h-172v-639z" />
<glyph unicode="z" horiz-adv-x="962" d="M55 0h852v168h-618l600 729v158h-817v-166h590l-607 -744v-145z" />
<glyph unicode="{" horiz-adv-x="630" d="M59 639q35 0 67 -7t56.5 -26.5t39 -53.5t14.5 -85v-338q0 -90 25.5 -149.5t68.5 -94.5t102.5 -48t126.5 -7v145q-86 -4 -122 36t-36 118v332q0 104 -35.5 163.5t-107.5 86.5q72 29 107.5 88t35.5 162v337q0 76 36 117t122 37v145q-68 6 -127 -7t-102 -48t-68.5 -95.5 t-25.5 -148.5v-344q0 -53 -14.5 -85.5t-39 -52t-56.5 -27t-67 -7.5v-143z" />
<glyph unicode="|" horiz-adv-x="454" d="M141 0h172v1524h-172v-1524z" />
<glyph unicode="}" horiz-adv-x="630" d="M72 -25v-145q68 -6 127 7t102 48t68.5 94.5t25.5 149.5v338q0 51 14.5 85t39 53.5t56.5 26.5t66 7v143q-35 0 -66.5 7.5t-56 27t-39 52t-14.5 85.5v344q0 88 -25.5 148.5t-68.5 95.5t-102 48t-127 7v-145q86 4 121.5 -37t35.5 -117v-337q0 -102 36 -162t108 -88 q-72 -27 -108 -86.5t-36 -163.5v-332q0 -78 -35.5 -118t-121.5 -36z" />
<glyph unicode="~" horiz-adv-x="776" d="M47 1204h98q4 37 27 62.5t59 25.5q31 0 65 -12t69.5 -26.5t74.5 -27t80 -12.5q51 0 89 18.5t63.5 48.5t39 69t17.5 80h-98q-4 -37 -26.5 -64t-59.5 -27q-31 0 -63.5 12.5t-67.5 28t-75 27.5t-83 12q-49 0 -87 -18.5t-63.5 -48t-40 -68.5t-18.5 -80z" />
<glyph unicode="&#xa1;" horiz-adv-x="555" d="M180 1219h195v202h-195v-202zM190 0h175v1059h-175v-1059z" />
<glyph unicode="&#xa2;" horiz-adv-x="1120" d="M63 539q0 -160 80 -288t209 -194l-86 -282h123l72 239q29 -6 58.5 -10t62.5 -4q174 0 300 94t179 250h-187q-43 -86 -119.5 -132t-172.5 -46q-18 0 -37 2t-35 6l215 709q96 -47 147 -146h189q-39 109 -111.5 188t-175.5 119l76 248h-123l-65 -217q-41 6 -80 6 q-106 0 -200.5 -43t-165.5 -116.5t-112 -172t-41 -210.5zM238 539q0 78 26.5 146.5t73.5 119.5t109.5 80.5t134.5 29.5q8 0 15 -1t15 -1l-211 -692q-74 49 -118.5 132t-44.5 186z" />
<glyph unicode="&#xa3;" horiz-adv-x="1085" d="M68 0h950v168h-701q35 33 53.5 86t18.5 135v236h412v166h-412v204q0 127 64.5 193.5t187.5 66.5h322v166h-322q-193 0 -309.5 -110.5t-116.5 -315.5v-204h-147v-166h147v-281q0 -98 -36 -140t-111 -42v-162z" />
<glyph unicode="&#xa4;" horiz-adv-x="1409" d="M72 446h151q31 -96 89.5 -178t136 -141t171 -93t197.5 -34q172 0 310.5 88.5t218.5 233.5h-201q-61 -72 -145.5 -115t-182.5 -43q-68 0 -130 21.5t-114.5 58.5t-95.5 89t-69 113h604l57 117h-696q-8 41 -8 94v27q0 14 2 29h774l57 116h-805q25 70 66 128.5t96 101.5 t121.5 67.5t140.5 24.5q133 0 246 -65.5t176 -170.5l80 166q-92 111 -223 172.5t-279 61.5q-109 0 -206 -37t-177 -101.5t-138 -153.5t-85 -194h-139v-116h121q-2 -14 -3 -29v-27q0 -49 7 -94h-125v-117z" />
<glyph unicode="&#xa5;" horiz-adv-x="1234" d="M35 1421l272 -469h-217v-116h285l131 -226h-385v-116h409v-494h175v494h407v116h-383l131 226h285v116h-217l272 469h-201l-383 -673l-380 673h-201z" />
<glyph unicode="&#xa7;" horiz-adv-x="1095" d="M86 776q0 -94 39 -152.5t98.5 -95t132 -55t138.5 -33.5q82 -16 131 -33.5t76.5 -37t37 -40t9.5 -44.5q0 -70 -55.5 -108t-147.5 -38t-151.5 45t-59.5 133h-170q0 -78 27.5 -140t79 -107t121 -70t153.5 -25t153.5 21.5t118.5 61.5t77 97.5t28 129.5q0 84 -35 139 q55 37 90 96.5t35 136.5q0 80 -27 134.5t-78 93.5t-126.5 64.5t-174.5 43.5q-80 14 -131 30.5t-78.5 34t-38 39t-10.5 50.5q0 76 60.5 110.5t144.5 34.5q104 0 157.5 -48t53.5 -132h170q0 82 -28.5 146.5t-80 108.5t-121 66.5t-151.5 22.5q-84 0 -153.5 -22.5t-120 -63.5 t-78 -97t-27.5 -126q0 -80 39 -137q-59 -41 -93 -100.5t-34 -133.5zM260 778q0 86 78 123q47 -27 106.5 -43t124.5 -29q86 -16 138.5 -32.5t82 -37t39 -46t9.5 -56.5q0 -43 -21.5 -76t-58.5 -49q-45 20 -100.5 36t-120.5 30q-86 16 -140.5 33.5t-85 39t-41 47t-10.5 60.5z " />
<glyph unicode="&#xa8;" horiz-adv-x="854" d="M170 1245h166v185h-166v-185zM518 1245h166v185h-166v-185z" />
<glyph unicode="&#xa9;" horiz-adv-x="1638" d="M78 717q0 -154 58.5 -289t158.5 -235.5t235.5 -159t288.5 -58.5q154 0 289 58.5t235.5 159t159 235.5t58.5 289t-58.5 288t-159 234t-235.5 158.5t-289 58.5t-289 -58.5t-235 -158.5t-158.5 -234.5t-58.5 -287.5zM225 717q0 125 47 234.5t127 191.5t188.5 129t231.5 47 t231.5 -47t188.5 -129t127 -191.5t47 -234.5t-47 -235.5t-127 -192.5t-188.5 -129t-231.5 -47t-231.5 47t-188.5 129t-127 192.5t-47 235.5zM397 717q0 -92 34 -172t91.5 -140.5t134 -95.5t162.5 -35q70 0 133.5 22.5t115.5 62.5t91.5 96.5t59.5 122.5h-158 q-35 -72 -98.5 -115t-143.5 -43q-57 0 -106 23.5t-86 63.5t-57.5 94t-20.5 116q0 61 20.5 114.5t57.5 93.5t86 63.5t106 23.5q82 0 145.5 -42t96.5 -114h160q-20 66 -58.5 121t-90.5 95t-116.5 62.5t-136.5 22.5q-86 0 -162.5 -35t-134 -95t-91.5 -140t-34 -170z" />
<glyph unicode="&#xaa;" horiz-adv-x="831" d="M61 1106q0 -72 27 -134.5t72 -109.5t105.5 -74.5t127.5 -27.5q63 0 114.5 22.5t90.5 63.5v-68h131v328q0 72 -25.5 135.5t-70.5 110.5t-106.5 74.5t-131.5 27.5q-72 0 -132 -27.5t-105 -74.5t-71 -110.5t-26 -135.5zM197 1106q0 45 15 86t43 70.5t63.5 47t76.5 17.5 t77 -17.5t62.5 -47t42 -70.5t15.5 -86t-15.5 -85t-42 -69.5t-62.5 -47t-77 -17.5t-76.5 17.5t-63.5 47t-43 69.5t-15 85z" />
<glyph unicode="&#xab;" horiz-adv-x="866" d="M47 545l324 -279v180l-205 168l205 164v183l-324 -279v-137zM481 545l324 -279v180l-205 168l205 164v183l-324 -279v-137z" />
<glyph unicode="&#xac;" horiz-adv-x="409" d="M102 571h205v213h-205v-213z" />
<glyph unicode="&#xad;" horiz-adv-x="735" d="M90 481h555v168h-555v-168z" />
<glyph unicode="&#xae;" horiz-adv-x="1638" d="M78 717q0 -154 58.5 -289t158.5 -235.5t235.5 -159t288.5 -58.5q154 0 289 58.5t235.5 159t159 235.5t58.5 289t-58.5 288t-159 234t-235.5 158.5t-289 58.5t-289 -58.5t-235 -158.5t-158.5 -234.5t-58.5 -287.5zM225 717q0 125 47 234.5t127 191.5t188.5 129t231.5 47 t231.5 -47t188.5 -129t127 -191.5t47 -234.5t-47 -235.5t-127 -192.5t-188.5 -129t-231.5 -47t-231.5 47t-188.5 129t-127 192.5t-47 235.5zM518 328h154v282h198l148 -284h176l-174 303q78 29 124 94t46 154q0 123 -76 194.5t-205 71.5h-391v-815zM672 752v249h239 q59 0 93 -27.5t34 -96.5q0 -70 -40 -97.5t-87 -27.5h-239z" />
<glyph unicode="&#xaf;" horiz-adv-x="800" d="M86 1266h629v123h-629v-123z" />
<glyph unicode="&#xb0;" horiz-adv-x="774" d="M72 1108q0 -66 24.5 -123t67.5 -100t100.5 -67.5t122.5 -24.5q63 0 120.5 24.5t100.5 67.5t68.5 100t25.5 123q0 63 -25.5 120.5t-68.5 100.5t-100.5 67.5t-120.5 24.5q-66 0 -123 -24.5t-100 -67.5t-67.5 -100.5t-24.5 -120.5zM188 1108q0 84 57.5 142.5t141.5 58.5 t141.5 -58.5t57.5 -142.5q0 -86 -57.5 -143.5t-141.5 -57.5t-141.5 57.5t-57.5 143.5z" />
<glyph unicode="&#xb1;" horiz-adv-x="1718" d="M131 0h172v885h395v-885h172v885h240v166h-240v41q0 53 12.5 116.5t53.5 100.5q59 55 178 47v157q-184 20 -295 -79q-121 -109 -121 -342v-41h-395v41q0 53 12.5 116.5t53.5 100.5q59 55 178 47v157q-184 20 -295 -79q-121 -109 -121 -342v-1092zM1260 385 q0 -100 30.5 -177t86 -127t132 -70.5t168.5 -10.5v164q-49 -2 -93 7t-77.5 34.5t-53 71t-19.5 114.5v1133h-174v-1139z" />
<glyph unicode="&#xb2;" horiz-adv-x="704" d="M27 528h591v129h-303l154 168q41 47 71.5 87t51 80t31 81t10.5 90q0 51 -19.5 102.5t-56.5 91.5t-92 65.5t-127 25.5q-66 0 -121 -23.5t-95 -65.5t-62.5 -101.5t-22.5 -131.5h135q0 37 9 72t29.5 62.5t52.5 44t77 16.5t74.5 -16.5t48 -40t27 -51t8.5 -50.5 q0 -29 -4.5 -53.5t-17.5 -52t-37.5 -61t-65.5 -78.5z" />
<glyph unicode="&#xb3;" horiz-adv-x="757" d="M31 784q16 -121 106 -194.5t228 -73.5q70 0 130 23.5t103 66.5t67.5 102.5t24.5 131.5q0 113 -56 189.5t-163 105.5l201 286h-582v-129h334l-178 -258q162 16 236.5 -36t74.5 -158q0 -86 -53 -144.5t-139 -58.5q-74 0 -127.5 39t-69.5 108h-137z" />
<glyph unicode="&#xb4;" horiz-adv-x="854" d="M328 1235h143l244 270h-209z" />
<glyph unicode="&#xb5;" horiz-adv-x="409" d="M102 571h205v213h-205v-213z" />
<glyph unicode="&#xb6;" horiz-adv-x="1126" d="M53 991q0 -90 28 -165.5t82 -132t132 -90.5t178 -40v-563h172v1255h180v-1255h174v1421h-489q-111 0 -196 -31.5t-143 -89t-88 -136.5t-30 -173z" />
<glyph unicode="&#xb7;" horiz-adv-x="409" d="M102 571h205v213h-205v-213z" />
<glyph unicode="&#xb8;" horiz-adv-x="516" d="M86 -299q33 -41 83 -63.5t97 -22.5q74 0 119 37t45 106q0 47 -23.5 79t-58.5 45.5t-75 11t-72 -22.5l2 -14l90 143h-92l-78 -160l65 -43q16 16 36 21.5t38 5.5q39 0 60.5 -20.5t21.5 -49.5q0 -31 -25.5 -47t-60.5 -16q-39 0 -79 13t-68 42z" />
<glyph unicode="&#xb9;" horiz-adv-x="448" d="M31 1298h102v-770h137v893h-239v-123z" />
<glyph unicode="&#xba;" horiz-adv-x="788" d="M61 1106q0 -72 27 -134.5t72 -109.5t105.5 -74.5t129.5 -27.5q70 0 130.5 27.5t105.5 74.5t70.5 109.5t25.5 134.5t-25.5 135.5t-70.5 110.5t-105.5 74.5t-130.5 27.5t-130 -27.5t-105 -74.5t-72 -110.5t-27 -135.5zM197 1106q0 45 15 85t43 70.5t63.5 48t76.5 17.5 t77 -17.5t62.5 -48t42 -70.5t15.5 -85t-15.5 -85t-42 -69.5t-62.5 -47t-77 -17.5t-76.5 17.5t-63.5 47t-43 69.5t-15 85z" />
<glyph unicode="&#xbb;" horiz-adv-x="866" d="M59 266l326 279v137l-326 279v-183l205 -164l-205 -168v-180zM494 266l325 279v137l-325 279v-183l204 -164l-204 -168v-180z" />
<glyph unicode="&#xbc;" horiz-adv-x="1314" d="M31 1298h102v-770h137v893h-239v-123zM84 -25h127l833 1446h-126zM641 195h410v-195h135v195h74v129h-74v569h-137l-408 -565v-133zM788 324l263 362v-362h-263z" />
<glyph unicode="&#xbd;" horiz-adv-x="1470" d="M31 1298h102v-770h137v893h-239v-123zM82 -25h129l833 1446h-126zM793 0h591v131h-303l154 168q82 92 123 166t41 170q0 51 -19.5 102t-56.5 92t-92 66t-127 25q-66 0 -121 -24t-95 -66t-62.5 -100t-22.5 -130h135q0 37 9 72t29.5 62.5t52.5 44t77 16.5t74.5 -16.5 t48 -41t27 -52.5t8.5 -50q0 -29 -4.5 -53.5t-17.5 -52t-37.5 -61.5t-65.5 -79z" />
<glyph unicode="&#xbe;" horiz-adv-x="1656" d="M31 784q16 -121 106.5 -194.5t227.5 -73.5q70 0 130 23.5t103 66.5t67.5 102.5t24.5 131.5q0 113 -57.5 189.5t-163.5 105.5l203 286h-584v-129h334l-176 -258q162 16 235.5 -36t73.5 -158q0 -86 -52 -144.5t-138 -58.5q-76 0 -129.5 39t-69.5 108h-135zM424 -25h127 l835 1446h-126zM981 195h412v-195h135v195h74v129h-74v569h-137l-410 -565v-133zM1130 324l263 362v-362h-263z" />
<glyph unicode="&#xbf;" horiz-adv-x="1069" d="M94 362q0 -84 30 -155.5t87 -125.5t141 -85t191 -31q106 0 192 34t146.5 91t92.5 134t32 161h-175q0 -113 -76.5 -183.5t-211.5 -70.5q-139 0 -208 63.5t-69 174.5q0 41 10.5 71.5t31 57t48 51t64.5 53.5q47 37 91 73t78 81t53.5 104.5t19.5 143.5v55h-170v-55 q0 -55 -12.5 -94.5t-35 -70t-55.5 -57t-72 -55.5q-37 -27 -76.5 -58.5t-72.5 -74.5t-53.5 -99.5t-20.5 -132.5zM477 1219h197v202h-197v-202z" />
<glyph unicode="&#xc0;" d="M150 0h174v528h655v-528h174v954q0 106 -38 197.5t-104.5 159t-158.5 106.5t-201 39t-201 -39t-158.5 -106.5t-104 -158.5t-37.5 -198v-954zM324 696v258q0 70 24.5 130.5t68.5 106.5t104.5 72.5t129.5 26.5q72 0 132.5 -26.5t103.5 -72.5t67.5 -106.5t24.5 -130.5v-258 h-655zM326 1847l254 -280h137l-178 280h-213z" />
<glyph unicode="&#xc1;" d="M150 0h174v528h655v-528h174v954q0 106 -38 197.5t-104.5 159t-158.5 106.5t-201 39t-201 -39t-158.5 -106.5t-104 -158.5t-37.5 -198v-954zM324 696v258q0 70 24.5 130.5t68.5 106.5t104.5 72.5t129.5 26.5q72 0 132.5 -26.5t103.5 -72.5t67.5 -106.5t24.5 -130.5v-258 h-655zM594 1567h135l256 280h-213z" />
<glyph unicode="&#xc2;" d="M150 0h174v528h655v-528h174v954q0 106 -38 197.5t-104.5 159t-158.5 106.5t-201 39t-201 -39t-158.5 -106.5t-104 -158.5t-37.5 -198v-954zM324 696v258q0 70 24.5 130.5t68.5 106.5t104.5 72.5t129.5 26.5q72 0 132.5 -26.5t103.5 -72.5t67.5 -106.5t24.5 -130.5v-258 h-655zM362 1565h158l131 186l131 -186h158l-213 290h-152z" />
<glyph unicode="&#xc3;" d="M150 0h174v528h655v-528h174v954q0 106 -38 197.5t-104.5 159t-158.5 106.5t-201 39t-201 -39t-158.5 -106.5t-104 -158.5t-37.5 -198v-954zM291 1583h98q4 37 26.5 62.5t59.5 25.5q31 0 64.5 -12t69.5 -26.5t75 -27t80 -12.5q49 0 87 18.5t63.5 48.5t40 68.5t18.5 79.5 h-99q-4 -37 -26.5 -63.5t-59.5 -26.5q-31 0 -63.5 12.5t-67 28t-74.5 27.5t-83 12q-51 0 -89 -18.5t-63.5 -48t-40 -68.5t-16.5 -80zM324 696v258q0 70 24.5 130.5t68.5 106.5t104.5 72.5t129.5 26.5q72 0 132.5 -26.5t103.5 -72.5t67.5 -106.5t24.5 -130.5v-258h-655z" />
<glyph unicode="&#xc4;" d="M150 0h174v528h655v-528h174v954q0 106 -38 197.5t-104.5 159t-158.5 106.5t-201 39t-201 -39t-158.5 -106.5t-104 -158.5t-37.5 -198v-954zM324 696v258q0 70 24.5 130.5t68.5 106.5t104.5 72.5t129.5 26.5q72 0 132.5 -26.5t103.5 -72.5t67.5 -106.5t24.5 -130.5v-258 h-655zM381 1585h188v205h-188v-205zM727 1585h188v205h-188v-205z" />
<glyph unicode="&#xc5;" d="M150 0h174v528h655v-528h174v954q0 106 -38 197.5t-104.5 159t-158.5 106.5t-201 39t-201 -39t-158.5 -106.5t-104 -158.5t-37.5 -198v-954zM324 696v258q0 70 24.5 130.5t68.5 106.5t104.5 72.5t129.5 26.5q72 0 132.5 -26.5t103.5 -72.5t67.5 -106.5t24.5 -130.5v-258 h-655zM453 1767q0 -41 15 -75.5t42 -61t62.5 -42t76.5 -15.5q39 0 75 15.5t62.5 42t42 61t15.5 75.5t-15.5 77t-42 62.5t-62.5 42t-75 15.5q-82 0 -139 -57.5t-57 -139.5zM543 1767q0 45 30.5 76t75.5 31q43 0 74 -31t31 -76q0 -43 -31 -73.5t-74 -30.5q-45 0 -75.5 30.5 t-30.5 73.5z" />
<glyph unicode="&#xc6;" horiz-adv-x="1974" d="M150 0h174v528h657v-102q0 -203 114.5 -314.5t311.5 -111.5h461v168h-461q-123 0 -188.5 66.5t-65.5 191.5v199h633v166h-633v204q0 127 65.5 193.5t188.5 66.5h461v166h-459q-246 0 -350 -170q-66 94 -170.5 149.5t-237.5 55.5q-109 0 -201 -39t-158.5 -106.5 t-104 -158.5t-37.5 -198v-954zM324 696v258q0 70 24.5 130.5t68.5 106.5t104.5 72.5t129.5 26.5q72 0 132.5 -26.5t104.5 -72.5t68.5 -106.5t24.5 -130.5v-258h-657z" />
<glyph unicode="&#xc7;" horiz-adv-x="1488" d="M82 717q0 -141 48 -268t131 -225.5t196.5 -163t244.5 -80.5l-69 -140l65 -43q16 16 36 21.5t38 5.5q39 0 60.5 -20.5t21.5 -49.5q0 -31 -25.5 -47t-60.5 -16q-39 0 -78 13t-69 42l-25 -45q35 -41 84 -63.5t96 -22.5q74 0 120 37t46 106q0 45 -21.5 76t-53 46.5 t-69.5 14.5t-71 -16l59 96q115 0 217.5 34t186.5 95.5t147.5 149.5t100.5 197h-183q-66 -141 -188.5 -224.5t-280.5 -83.5q-111 0 -207 45t-168.5 124t-114.5 183.5t-42 221.5t42 221t114.5 183t169 124t206.5 45q174 0 292 -86t177 -221h183q-35 104 -95.5 191.5 t-143.5 149.5t-187.5 97t-225.5 35q-145 0 -274 -58.5t-224 -158.5t-150.5 -234.5t-55.5 -287.5z" />
<glyph unicode="&#xc8;" horiz-adv-x="1169" d="M133 426q0 -203 116 -314.5t310 -111.5h504v168h-504q-123 0 -187.5 66.5t-64.5 191.5v205h666v162h-666v202q0 127 64.5 193.5t187.5 66.5h504v166h-504q-195 0 -310.5 -110.5t-115.5 -315.5v-569zM344 1847l256 -280h135l-178 280h-213z" />
<glyph unicode="&#xc9;" horiz-adv-x="1169" d="M133 426q0 -203 116 -314.5t310 -111.5h504v168h-504q-123 0 -187.5 66.5t-64.5 191.5v205h666v162h-666v202q0 127 64.5 193.5t187.5 66.5h504v166h-504q-195 0 -310.5 -110.5t-115.5 -315.5v-569zM573 1567h136l256 280h-213z" />
<glyph unicode="&#xca;" horiz-adv-x="1169" d="M133 426q0 -203 116 -314.5t310 -111.5h504v168h-504q-123 0 -187.5 66.5t-64.5 191.5v205h666v162h-666v202q0 127 64.5 193.5t187.5 66.5h504v166h-504q-195 0 -310.5 -110.5t-115.5 -315.5v-569zM334 1565h158l131 186l131 -186h157l-213 290h-151z" />
<glyph unicode="&#xcb;" horiz-adv-x="1169" d="M133 426q0 -203 116 -314.5t310 -111.5h504v168h-504q-123 0 -187.5 66.5t-64.5 191.5v205h666v162h-666v202q0 127 64.5 193.5t187.5 66.5h504v166h-504q-195 0 -310.5 -110.5t-115.5 -315.5v-569zM362 1585h189v205h-189v-205zM709 1585h188v205h-188v-205z" />
<glyph unicode="&#xcc;" horiz-adv-x="522" d="M-74 1847l254 -280h137l-178 280h-213zM174 0h174v1421h-174v-1421z" />
<glyph unicode="&#xcd;" horiz-adv-x="522" d="M174 0h174v1421h-174v-1421zM190 1567h138l256 280h-215z" />
<glyph unicode="&#xce;" horiz-adv-x="522" d="M-29 1565h158l133 186l131 -186h158l-215 290h-152zM174 0h174v1421h-174v-1421z" />
<glyph unicode="&#xcf;" horiz-adv-x="522" d="M-6 1585h188v205h-188v-205zM174 0h174v1421h-174v-1421zM340 1585h188v205h-188v-205z" />
<glyph unicode="&#xd0;" horiz-adv-x="1417" d="M35 709h131v-709h528q147 0 266 49t203 141.5t129 224.5t45 298t-45 297t-129 222t-202.5 140t-266.5 49h-528v-544h-131v-168zM340 168v541h424v168h-424v378h354q96 0 181.5 -29.5t147.5 -95t99 -169t37 -248.5q0 -143 -36 -247t-99 -169.5t-147 -97t-183 -31.5h-354z " />
<glyph unicode="&#xd1;" d="M150 0h174v958q0 70 25.5 131.5t70.5 105.5t104.5 69.5t126.5 25.5q68 0 127.5 -25.5t104.5 -69.5t70.5 -105.5t25.5 -131.5v-958h174v958q0 106 -39 197.5t-106.5 158t-159 104.5t-197.5 38t-197.5 -38t-159 -104.5t-106 -157.5t-38.5 -198v-958zM307 1583h99 q4 37 26.5 62.5t59.5 25.5q31 0 64.5 -12t69.5 -26.5t74.5 -27t79.5 -12.5q51 0 89 18.5t63.5 48.5t39 68.5t17.5 79.5h-98q-4 -37 -25.5 -63.5t-60.5 -26.5q-31 0 -63.5 12.5t-67.5 28t-75 27.5t-83 12q-49 0 -87 -18.5t-63.5 -48t-40 -68.5t-18.5 -80z" />
<glyph unicode="&#xd2;" horiz-adv-x="1572" d="M82 717q0 -156 55.5 -291t150.5 -235.5t224 -158t274 -57.5t274.5 57.5t224.5 158t150.5 235.5t55.5 291q0 158 -54.5 293t-149.5 234t-224.5 155.5t-276.5 56.5q-145 0 -274 -57.5t-224 -157.5t-150.5 -234.5t-55.5 -289.5zM254 717q0 121 42 225.5t114.5 182t169 121.5 t206.5 44q113 0 210.5 -44t169 -120.5t112.5 -181t41 -227.5q0 -121 -42 -225.5t-114.5 -182.5t-169 -122t-207.5 -44t-207 44t-168.5 121t-114.5 182.5t-42 226.5zM457 1847l256 -280h137l-180 280h-213z" />
<glyph unicode="&#xd3;" horiz-adv-x="1572" d="M82 717q0 -156 55.5 -291t150.5 -235.5t224 -158t274 -57.5t274.5 57.5t224.5 158t150.5 235.5t55.5 291q0 158 -54.5 293t-149.5 234t-224.5 155.5t-276.5 56.5q-145 0 -274 -57.5t-224 -157.5t-150.5 -234.5t-55.5 -289.5zM254 717q0 121 42 225.5t114.5 182t169 121.5 t206.5 44q113 0 210.5 -44t169 -120.5t112.5 -181t41 -227.5q0 -121 -42 -225.5t-114.5 -182.5t-169 -122t-207.5 -44t-207 44t-168.5 121t-114.5 182.5t-42 226.5zM731 1567h135l256 280h-213z" />
<glyph unicode="&#xd4;" horiz-adv-x="1572" d="M82 717q0 -156 55.5 -291t150.5 -235.5t224 -158t274 -57.5t274.5 57.5t224.5 158t150.5 235.5t55.5 291q0 158 -54.5 293t-149.5 234t-224.5 155.5t-276.5 56.5q-145 0 -274 -57.5t-224 -157.5t-150.5 -234.5t-55.5 -289.5zM254 717q0 121 42 225.5t114.5 182t169 121.5 t206.5 44q113 0 210.5 -44t169 -120.5t112.5 -181t41 -227.5q0 -121 -42 -225.5t-114.5 -182.5t-169 -122t-207.5 -44t-207 44t-168.5 121t-114.5 182.5t-42 226.5zM498 1565h157l131 186l132 -186h157l-215 290h-149z" />
<glyph unicode="&#xd5;" horiz-adv-x="1572" d="M82 717q0 -156 55.5 -291t150.5 -235.5t224 -158t274 -57.5t274.5 57.5t224.5 158t150.5 235.5t55.5 291q0 158 -54.5 293t-149.5 234t-224.5 155.5t-276.5 56.5q-145 0 -274 -57.5t-224 -157.5t-150.5 -234.5t-55.5 -289.5zM254 717q0 121 42 225.5t114.5 182t169 121.5 t206.5 44q113 0 210.5 -44t169 -120.5t112.5 -181t41 -227.5q0 -121 -42 -225.5t-114.5 -182.5t-169 -122t-207.5 -44t-207 44t-168.5 121t-114.5 182.5t-42 226.5zM424 1583h98q4 37 26.5 62.5t59.5 25.5q31 0 65 -12t69.5 -26.5t74.5 -27t80 -12.5q49 0 87 18.5t63.5 48.5 t40 68.5t18.5 79.5h-98q-4 -37 -27 -63.5t-59 -26.5q-31 0 -64 12.5t-67.5 28t-74.5 27.5t-83 12q-51 0 -89 -18.5t-63.5 -48t-40 -68.5t-16.5 -80z" />
<glyph unicode="&#xd6;" horiz-adv-x="1572" d="M82 717q0 -156 55.5 -291t150.5 -235.5t224 -158t274 -57.5t274.5 57.5t224.5 158t150.5 235.5t55.5 291q0 158 -54.5 293t-149.5 234t-224.5 155.5t-276.5 56.5q-145 0 -274 -57.5t-224 -157.5t-150.5 -234.5t-55.5 -289.5zM254 717q0 121 42 225.5t114.5 182t169 121.5 t206.5 44q113 0 210.5 -44t169 -120.5t112.5 -181t41 -227.5q0 -121 -42 -225.5t-114.5 -182.5t-169 -122t-207.5 -44t-207 44t-168.5 121t-114.5 182.5t-42 226.5zM520 1585h187v205h-187v-205zM866 1585h187v205h-187v-205z" />
<glyph unicode="&#xd7;" horiz-adv-x="1046" d="M31 143l119 -118l374 374l375 -374l117 118l-373 375l373 373l-117 119l-375 -375l-374 375l-119 -119l375 -373z" />
<glyph unicode="&#xd8;" horiz-adv-x="1572" d="M82 717q0 -135 41 -253t113 -214l-146 -146l82 -84l143 144q94 -88 215 -138.5t256 -50.5q145 0 274.5 57.5t224.5 158t150.5 235.5t55.5 291q0 137 -41 256t-113 213l146 145l-84 82l-139 -141q-94 88 -214 136t-260 48q-145 0 -274 -57.5t-224 -157.5t-150.5 -234.5 t-55.5 -289.5zM254 717q0 121 42 225.5t114.5 182t169 121.5t206.5 44q104 0 192.5 -35.5t160.5 -101.5l-781 -780q-49 72 -76.5 158.5t-27.5 185.5zM436 283l778 780q49 -72 77 -159t28 -187q0 -121 -42 -225.5t-114.5 -182.5t-169 -122t-207.5 -44q-102 0 -191 37 t-159 103z" />
<glyph unicode="&#xd9;" horiz-adv-x="1372" d="M141 510q0 -119 39 -217t110.5 -169t172 -110t223.5 -39q121 0 221.5 39t172 110t111.5 169t40 217v911h-174v-911q0 -80 -24.5 -146.5t-72 -115.5t-116 -77t-158.5 -28t-158.5 28t-117 77t-73 115.5t-24.5 146.5v911h-172v-911zM379 1847l256 -280h135l-178 280h-213z " />
<glyph unicode="&#xda;" horiz-adv-x="1372" d="M141 510q0 -119 39 -217t110.5 -169t172 -110t223.5 -39q121 0 221.5 39t172 110t111.5 169t40 217v911h-174v-911q0 -80 -24.5 -146.5t-72 -115.5t-116 -77t-158.5 -28t-158.5 28t-117 77t-73 115.5t-24.5 146.5v911h-172v-911zM604 1567h135l256 280h-213z" />
<glyph unicode="&#xdb;" horiz-adv-x="1372" d="M141 510q0 -119 39 -217t110.5 -169t172 -110t223.5 -39q121 0 221.5 39t172 110t111.5 169t40 217v911h-174v-911q0 -80 -24.5 -146.5t-72 -115.5t-116 -77t-158.5 -28t-158.5 28t-117 77t-73 115.5t-24.5 146.5v911h-172v-911zM403 1565h158l131 186l131 -186h158 l-213 290h-152z" />
<glyph unicode="&#xdc;" horiz-adv-x="1372" d="M141 510q0 -119 39 -217t110.5 -169t172 -110t223.5 -39q121 0 221.5 39t172 110t111.5 169t40 217v911h-174v-911q0 -80 -24.5 -146.5t-72 -115.5t-116 -77t-158.5 -28t-158.5 28t-117 77t-73 115.5t-24.5 146.5v911h-172v-911zM420 1585h188v205h-188v-205zM766 1585 h186v205h-186v-205z" />
<glyph unicode="&#xdd;" horiz-adv-x="1202" d="M106 1030q0 -96 30 -180t84 -149.5t129 -109.5t167 -59v-532h174v535q90 14 165 58t128 109.5t83 149.5t30 178v391h-174v-391q0 -70 -21.5 -130t-63.5 -106t-101.5 -73t-133.5 -27t-133 27t-101 73t-65.5 106.5t-23.5 129.5v391h-173v-391zM526 1530h138l256 280h-215z " />
<glyph unicode="&#xde;" horiz-adv-x="1273" d="M166 0h172v362h426q109 0 193.5 32t143 89.5t89.5 136.5t31 173t-31 172.5t-89.5 136t-143.5 89.5t-193 32h-426v198h-172v-1421zM338 528v527h426q125 0 204 -61.5t79 -200.5q0 -141 -79 -203t-204 -62h-426z" />
<glyph unicode="&#xdf;" horiz-adv-x="1230" d="M141 0h172v1051q0 88 24.5 147t64.5 96t90.5 53.5t103.5 16.5t103.5 -14.5t89 -44t62 -74.5t23.5 -109q0 -47 -18 -88t-54 -73.5t-88 -51t-120 -18.5h-127v-166h178q59 -2 118.5 -17.5t108 -50t78 -91t29.5 -136.5q0 -139 -88 -215t-229 -76q-51 0 -105.5 9.5t-95.5 25.5 v-170q98 -29 201 -29q111 0 200.5 33t154 93.5t99.5 145.5t35 187q0 147 -72.5 247.5t-201.5 147.5q80 45 126 119t46 174q0 88 -34 162t-93.5 127t-142.5 83t-183 30t-184 -33t-143.5 -94.5t-93.5 -149.5t-34 -196v-1051z" />
<glyph unicode="&#xe0;" horiz-adv-x="1245" d="M72 526q0 -119 41 -220t112.5 -175t167.5 -116t205 -42q113 0 208 52.5t157 138.5v-164h167v526q0 117 -40.5 218.5t-111.5 176t-167 117.5t-209 43q-111 0 -207 -42t-167.5 -116.5t-113.5 -176t-42 -220.5zM246 526q0 82 27.5 155t76.5 126t113.5 84t138.5 31 q72 0 136.5 -31t113.5 -85t77.5 -126t28.5 -154t-28.5 -152.5t-76.5 -123.5t-112.5 -84t-138.5 -31t-138.5 30t-113.5 83t-76.5 123.5t-27.5 154.5zM317 1477l256 -281h138l-181 281h-213z" />
<glyph unicode="&#xe1;" horiz-adv-x="1245" d="M72 526q0 -119 41 -220t112.5 -175t167.5 -116t205 -42q113 0 208 52.5t157 138.5v-164h167v526q0 117 -40.5 218.5t-111.5 176t-167 117.5t-209 43q-111 0 -207 -42t-167.5 -116.5t-113.5 -176t-42 -220.5zM246 526q0 82 27.5 155t76.5 126t113.5 84t138.5 31 q72 0 136.5 -31t113.5 -85t77.5 -126t28.5 -154t-28.5 -152.5t-76.5 -123.5t-112.5 -84t-138.5 -31t-138.5 30t-113.5 83t-76.5 123.5t-27.5 154.5zM424 1196h135l256 279h-213z" />
<glyph unicode="&#xe2;" horiz-adv-x="1245" d="M72 526q0 -119 41 -220t112.5 -175t167.5 -116t205 -42q113 0 208 52.5t157 138.5v-164h167v526q0 117 -40.5 218.5t-111.5 176t-167 117.5t-209 43q-111 0 -207 -42t-167.5 -116.5t-113.5 -176t-42 -220.5zM246 526q0 82 27.5 155t76.5 126t113.5 84t138.5 31 q72 0 136.5 -31t113.5 -85t77.5 -126t28.5 -154t-28.5 -152.5t-76.5 -123.5t-112.5 -84t-138.5 -31t-138.5 30t-113.5 83t-76.5 123.5t-27.5 154.5zM287 1194h155l133 186l132 -186h157l-213 293h-151z" />
<glyph unicode="&#xe3;" horiz-adv-x="1245" d="M72 526q0 -119 41 -220t112.5 -175t167.5 -116t205 -42q113 0 208 52.5t157 138.5v-164h167v526q0 117 -40.5 218.5t-111.5 176t-167 117.5t-209 43q-111 0 -207 -42t-167.5 -116.5t-113.5 -176t-42 -220.5zM231 1212h97q4 37 26.5 62.5t59.5 25.5q31 0 64.5 -12 t70.5 -26.5t74.5 -26.5t78.5 -12q51 0 89 18.5t64 48t39 68.5t17 80h-96q-4 -37 -26.5 -62.5t-59.5 -25.5q-31 0 -64.5 12t-68.5 27.5t-75 28t-83 12.5q-49 0 -87 -18.5t-63.5 -49.5t-40 -70t-16.5 -80zM246 526q0 82 27.5 155t76.5 126t113.5 84t138.5 31q72 0 136.5 -31 t113.5 -85t77.5 -126t28.5 -154t-28.5 -152.5t-76.5 -123.5t-112.5 -84t-138.5 -31t-138.5 30t-113.5 83t-76.5 123.5t-27.5 154.5z" />
<glyph unicode="&#xe4;" horiz-adv-x="1245" d="M72 526q0 -119 41 -220t112.5 -175t167.5 -116t205 -42q113 0 208 52.5t157 138.5v-164h167v526q0 117 -40.5 218.5t-111.5 176t-167 117.5t-209 43q-111 0 -207 -42t-167.5 -116.5t-113.5 -176t-42 -220.5zM246 526q0 82 27.5 155t76.5 126t113.5 84t138.5 31 q72 0 136.5 -31t113.5 -85t77.5 -126t28.5 -154t-28.5 -152.5t-76.5 -123.5t-112.5 -84t-138.5 -31t-138.5 30t-113.5 83t-76.5 123.5t-27.5 154.5zM313 1217h189v202h-189v-202zM659 1217h189v202h-189v-202z" />
<glyph unicode="&#xe5;" horiz-adv-x="1245" d="M72 526q0 -119 41 -220t112.5 -175t167.5 -116t205 -42q113 0 208 52.5t157 138.5v-164h167v526q0 117 -40.5 218.5t-111.5 176t-167 117.5t-209 43q-111 0 -207 -42t-167.5 -116.5t-113.5 -176t-42 -220.5zM246 526q0 82 27.5 155t76.5 126t113.5 84t138.5 31 q72 0 136.5 -31t113.5 -85t77.5 -126t28.5 -154t-28.5 -152.5t-76.5 -123.5t-112.5 -84t-138.5 -31t-138.5 30t-113.5 83t-76.5 123.5t-27.5 154.5zM381 1413q0 -41 15.5 -75.5t42 -61.5t61 -42t75.5 -15t77 15t62.5 42t42 61.5t15.5 75.5q0 82 -57.5 138.5t-139.5 56.5 q-41 0 -75.5 -15.5t-61 -41t-42 -61.5t-15.5 -77zM471 1413q0 43 30.5 74t73.5 31q45 0 76 -31t31 -74t-30.5 -73.5t-76.5 -30.5q-43 0 -73.5 30.5t-30.5 73.5z" />
<glyph unicode="&#xe6;" horiz-adv-x="2076" d="M72 526q0 -119 41 -219t112.5 -174t167.5 -116t207 -42q104 0 198.5 44t162.5 120v-139h163v143q66 -78 160 -123t213 -45q184 0 315.5 89.5t190.5 263.5h-184q-49 -94 -129 -144.5t-193 -50.5q-90 0 -173 44t-134 128l813 342q-25 102 -76 183t-120.5 136.5t-152.5 85 t-169 29.5q-141 0 -258 -74.5t-183 -197.5q-63 123 -177.5 197.5t-264.5 74.5q-111 0 -207 -42t-167.5 -116.5t-113.5 -176t-42 -220.5zM246 526q0 82 27.5 155t76.5 126t113.5 84t138.5 31q72 0 136.5 -31t113.5 -85t77.5 -126t28.5 -154t-28.5 -152.5t-76.5 -123.5 t-112.5 -84t-138.5 -31t-138.5 30t-113.5 83t-76.5 123.5t-27.5 154.5zM1133 489v39q0 92 31.5 166t81.5 124t113.5 78t125.5 28q98 0 178 -52.5t127 -142.5l-653 -276q-4 18 -4 36z" />
<glyph unicode="&#xe7;" horiz-adv-x="1153" d="M72 526q0 -106 36.5 -201.5t100 -168t149.5 -119.5t185 -57l-68 -140l66 -43q16 16 35.5 21.5t37.5 5.5q39 0 60.5 -20.5t21.5 -49.5q0 -31 -25.5 -47t-60.5 -16q-39 0 -77.5 13t-69.5 42l-25 -45q33 -41 84 -63.5t99 -22.5q72 0 117.5 37t45.5 106q0 45 -21.5 76 t-53 46.5t-69.5 14.5t-71 -16l60 96q166 8 288.5 103.5t174.5 249.5h-187q-43 -86 -121.5 -136.5t-183.5 -50.5q-74 0 -138.5 30t-112.5 82t-75.5 122.5t-27.5 150.5t27.5 151t75.5 124t112.5 83.5t138.5 30.5q104 0 182 -50t123 -136h187q-27 80 -74 144.5t-110.5 110.5 t-141.5 71.5t-166 25.5q-109 0 -205 -44t-167.5 -118.5t-113.5 -176t-42 -216.5z" />
<glyph unicode="&#xe8;" horiz-adv-x="1189" d="M72 526q0 -117 42 -217t114.5 -174t171 -117t212.5 -43q184 0 312.5 91.5t189.5 261.5h-180q-51 -92 -130 -140.5t-192 -48.5q-92 0 -173 43t-132 123l809 342q-23 102 -74 183t-120.5 136.5t-151.5 85t-168 29.5q-111 0 -207 -44t-167.5 -118.5t-113.5 -176t-42 -216.5z M246 528q0 90 31.5 163t83 123t115 77t126.5 27q90 0 171 -50.5t130 -136.5l-651 -274q-6 32 -6 71zM317 1477l256 -281h138l-181 281h-213z" />
<glyph unicode="&#xe9;" horiz-adv-x="1189" d="M72 526q0 -117 42 -217t114.5 -174t171 -117t212.5 -43q184 0 312.5 91.5t189.5 261.5h-180q-51 -92 -130 -140.5t-192 -48.5q-92 0 -173 43t-132 123l809 342q-23 102 -74 183t-120.5 136.5t-151.5 85t-168 29.5q-111 0 -207 -44t-167.5 -118.5t-113.5 -176t-42 -216.5z M246 528q0 90 31.5 163t83 123t115 77t126.5 27q90 0 171 -50.5t130 -136.5l-651 -274q-6 32 -6 71zM485 1196h136l256 279h-213z" />
<glyph unicode="&#xea;" horiz-adv-x="1189" d="M72 526q0 -117 42 -217t114.5 -174t171 -117t212.5 -43q184 0 312.5 91.5t189.5 261.5h-180q-51 -92 -130 -140.5t-192 -48.5q-92 0 -173 43t-132 123l809 342q-23 102 -74 183t-120.5 136.5t-151.5 85t-168 29.5q-111 0 -207 -44t-167.5 -118.5t-113.5 -176t-42 -216.5z M246 528q0 90 31.5 163t83 123t115 77t126.5 27q90 0 171 -50.5t130 -136.5l-651 -274q-6 32 -6 71zM291 1194h155l134 186l131 -186h157l-213 293h-151z" />
<glyph unicode="&#xeb;" horiz-adv-x="1189" d="M72 526q0 -117 42 -217t114.5 -174t171 -117t212.5 -43q184 0 312.5 91.5t189.5 261.5h-180q-51 -92 -130 -140.5t-192 -48.5q-92 0 -173 43t-132 123l809 342q-23 102 -74 183t-120.5 136.5t-151.5 85t-168 29.5q-111 0 -207 -44t-167.5 -118.5t-113.5 -176t-42 -216.5z M246 528q0 90 31.5 163t83 123t115 77t126.5 27q90 0 171 -50.5t130 -136.5l-651 -274q-6 32 -6 71zM319 1217h189v202h-189v-202zM666 1217h186v202h-186v-202z" />
<glyph unicode="&#xec;" horiz-adv-x="477" d="M-96 1477l256 -281h135l-178 281h-213zM141 0h174v1055h-174v-1055z" />
<glyph unicode="&#xed;" horiz-adv-x="477" d="M141 0h174v1055h-174v-1055zM174 1196h135l256 279h-213z" />
<glyph unicode="&#xee;" horiz-adv-x="477" d="M-55 1194h157l134 186l129 -186h157l-213 293h-149zM141 0h174v1055h-174v-1055z" />
<glyph unicode="&#xef;" horiz-adv-x="477" d="M-29 1217h189v202h-189v-202zM141 0h174v1055h-174v-1055zM317 1217h189v202h-189v-202z" />
<glyph unicode="&#xf0;" horiz-adv-x="1193" d="M74 508q0 -113 40 -211t109.5 -172t165.5 -117t207 -43t206 43t164.5 117t109.5 172t40 211q0 123 -30.5 238.5t-83 222t-124 200t-153.5 172.5l137 101l-96 57l-117 -88q-41 33 -80 62.5t-80 54.5l-141 -105q82 -45 168 -110l-151 -109l94 -59l137 100 q127 -111 221 -256q-47 31 -101 47.5t-120 16.5q-111 0 -207 -43t-165.5 -117t-109.5 -173t-40 -212zM246 508q0 80 27.5 150.5t74.5 123t111.5 83t136.5 30.5t135.5 -30.5t110.5 -83t74.5 -123t27.5 -150.5t-27.5 -150.5t-74.5 -123t-110.5 -82t-135.5 -29.5t-136.5 29.5 t-111.5 82t-74.5 123t-27.5 150.5z" />
<glyph unicode="&#xf1;" horiz-adv-x="1150" d="M135 0h172v647q0 119 73 196t195 77q123 0 195 -77t72 -196v-647h174v641q0 100 -34 181t-92.5 138.5t-139 89t-175.5 31.5q-94 0 -175 -31.5t-139 -89t-92 -138.5t-34 -181v-641zM236 1212h98q4 37 26.5 62.5t59.5 25.5q31 0 64.5 -12t69.5 -26.5t75 -26.5t80 -12 q51 0 89 18.5t63.5 48t38.5 68.5t18 80h-97q-4 -37 -26.5 -62.5t-59.5 -25.5q-31 0 -64.5 12t-68.5 27.5t-75 28t-83 12.5q-49 0 -87 -18.5t-64.5 -49.5t-40.5 -70t-16 -80z" />
<glyph unicode="&#xf2;" horiz-adv-x="1206" d="M72 524q0 -115 41 -214t112.5 -175t167.5 -119t209 -43t210 43t168 119t112 175.5t41 213.5q0 115 -41 216.5t-112 177t-168 119.5t-210 44t-209 -44t-167.5 -119.5t-112.5 -177t-41 -216.5zM248 524q0 80 27.5 152t75.5 125t112.5 83.5t138.5 30.5t138.5 -30.5 t113.5 -83.5t76.5 -125t27.5 -152t-27.5 -149.5t-76.5 -121.5t-113.5 -82t-138.5 -30t-138.5 30t-112.5 82t-75.5 121.5t-27.5 149.5zM262 1477l256 -281h135l-178 281h-213z" />
<glyph unicode="&#xf3;" horiz-adv-x="1206" d="M72 524q0 -115 41 -214t112.5 -175t167.5 -119t209 -43t210 43t168 119t112 175.5t41 213.5q0 115 -41 216.5t-112 177t-168 119.5t-210 44t-209 -44t-167.5 -119.5t-112.5 -177t-41 -216.5zM248 524q0 80 27.5 152t75.5 125t112.5 83.5t138.5 30.5t138.5 -30.5 t113.5 -83.5t76.5 -125t27.5 -152t-27.5 -149.5t-76.5 -121.5t-113.5 -82t-138.5 -30t-138.5 30t-112.5 82t-75.5 121.5t-27.5 149.5zM547 1196h135l256 279h-213z" />
<glyph unicode="&#xf4;" horiz-adv-x="1206" d="M72 524q0 -115 41 -214t112.5 -175t167.5 -119t209 -43t210 43t168 119t112 175.5t41 213.5q0 115 -41 216.5t-112 177t-168 119.5t-210 44t-209 -44t-167.5 -119.5t-112.5 -177t-41 -216.5zM248 524q0 80 27.5 152t75.5 125t112.5 83.5t138.5 30.5t138.5 -30.5 t113.5 -83.5t76.5 -125t27.5 -152t-27.5 -149.5t-76.5 -121.5t-113.5 -82t-138.5 -30t-138.5 30t-112.5 82t-75.5 121.5t-27.5 149.5zM311 1194h156l133 186l131 -186h158l-213 293h-152z" />
<glyph unicode="&#xf5;" horiz-adv-x="1206" d="M72 524q0 -115 41 -214t112.5 -175t167.5 -119t209 -43t210 43t168 119t112 175.5t41 213.5q0 115 -41 216.5t-112 177t-168 119.5t-210 44t-209 -44t-167.5 -119.5t-112.5 -177t-41 -216.5zM238 1212h96q4 37 26.5 62.5t59.5 25.5q31 0 64.5 -12t70.5 -26.5t76 -26.5 t80 -12q49 0 87 18.5t64.5 48t39.5 68.5t18 80h-99q-4 -37 -26.5 -62.5t-59.5 -25.5q-31 0 -63.5 12t-68.5 27.5t-75 28t-82 12.5q-51 0 -89 -18.5t-63.5 -49.5t-39.5 -70t-16 -80zM248 524q0 80 27.5 152t75.5 125t112.5 83.5t138.5 30.5t138.5 -30.5t113.5 -83.5 t76.5 -125t27.5 -152t-27.5 -149.5t-76.5 -121.5t-113.5 -82t-138.5 -30t-138.5 30t-112.5 82t-75.5 121.5t-27.5 149.5z" />
<glyph unicode="&#xf6;" horiz-adv-x="1206" d="M72 524q0 -115 41 -214t112.5 -175t167.5 -119t209 -43t210 43t168 119t112 175.5t41 213.5q0 115 -41 216.5t-112 177t-168 119.5t-210 44t-209 -44t-167.5 -119.5t-112.5 -177t-41 -216.5zM248 524q0 80 27.5 152t75.5 125t112.5 83.5t138.5 30.5t138.5 -30.5 t113.5 -83.5t76.5 -125t27.5 -152t-27.5 -149.5t-76.5 -121.5t-113.5 -82t-138.5 -30t-138.5 30t-112.5 82t-75.5 121.5t-27.5 149.5zM336 1217h188v202h-188v-202zM682 1217h188v202h-188v-202z" />
<glyph unicode="&#xf7;" horiz-adv-x="409" d="M102 571h205v213h-205v-213z" />
<glyph unicode="&#xf8;" horiz-adv-x="1206" d="M72 524q0 -92 27.5 -176t78.5 -153l-94 -93l84 -84l88 88q70 -61 157 -97t189 -36q113 0 210 43t168 119t112 175t41 214q0 98 -30 186.5t-83 159.5l102 103l-84 82l-98 -99q-68 59 -154 92t-184 33q-113 0 -209 -44t-167.5 -119.5t-112.5 -177t-41 -216.5zM248 524 q0 80 27.5 152t75.5 125t112.5 83.5t138.5 30.5q61 0 115.5 -21.5t101.5 -57.5l-516 -517q-27 45 -41 97.5t-14 107.5zM377 229l518 519q29 -47 46 -104t17 -120q0 -80 -27.5 -149.5t-76.5 -121.5t-113.5 -82t-138.5 -30q-63 0 -120.5 23.5t-104.5 64.5z" />
<glyph unicode="&#xf9;" horiz-adv-x="1153" d="M137 416q0 -100 34 -181t93.5 -138.5t140 -89.5t173.5 -32q92 0 172.5 32t140 89.5t93.5 138t34 181.5v639h-174v-639q0 -119 -72 -196t-194 -77q-123 0 -196 77t-73 196v639h-172v-639zM254 1477l256 -281h135l-178 281h-213z" />
<glyph unicode="&#xfa;" horiz-adv-x="1153" d="M137 416q0 -100 34 -181t93.5 -138.5t140 -89.5t173.5 -32q92 0 172.5 32t140 89.5t93.5 138t34 181.5v639h-174v-639q0 -119 -72 -196t-194 -77q-123 0 -196 77t-73 196v639h-172v-639zM508 1196h135l256 279h-213z" />
<glyph unicode="&#xfb;" horiz-adv-x="1153" d="M137 416q0 -100 34 -181t93.5 -138.5t140 -89.5t173.5 -32q92 0 172.5 32t140 89.5t93.5 138t34 181.5v639h-174v-639q0 -119 -72 -196t-194 -77q-123 0 -196 77t-73 196v639h-172v-639zM289 1194h157l132 186l131 -186h157l-213 293h-151z" />
<glyph unicode="&#xfc;" horiz-adv-x="1153" d="M137 416q0 -100 34 -181t93.5 -138.5t140 -89.5t173.5 -32q92 0 172.5 32t140 89.5t93.5 138t34 181.5v639h-174v-639q0 -119 -72 -196t-194 -77q-123 0 -196 77t-73 196v639h-172v-639zM313 1217h187v202h-187v-202zM657 1217h189v202h-189v-202z" />
<glyph unicode="&#xfd;" horiz-adv-x="1159" d="M137 416q0 -100 34 -181t93.5 -138.5t140 -89.5t173.5 -32q168 0 266 105v-158q0 -123 -72 -197.5t-194 -74.5q-102 0 -166 47t-93 133h-176q14 -82 53.5 -146.5t96.5 -109.5t129 -68.5t156 -23.5q92 0 172.5 29.5t140 87t93.5 138.5t34 185v1133h-174v-639 q0 -119 -72 -196t-194 -77q-123 0 -196 77t-73 196v639h-172v-639zM459 1165h135l256 279h-213z" />
<glyph unicode="&#xfe;" horiz-adv-x="1282" d="M150 -469h172v629q57 -78 150 -131.5t210 -53.5q113 0 209 43t166.5 119t110.5 177t40 216q0 113 -40 213.5t-110.5 176t-166.5 118.5t-209 43q-117 0 -210 -54t-150 -132v526h-172v-1890zM322 530q0 80 28.5 152t77.5 125t114.5 84t139.5 31t138.5 -31t111.5 -84 t74.5 -125t27.5 -152q0 -82 -27.5 -153.5t-74.5 -125.5t-111.5 -85t-138.5 -31t-139.5 31t-114.5 85t-77.5 126t-28.5 153z" />
<glyph unicode="&#xff;" horiz-adv-x="1159" d="M137 416q0 -100 34 -181t93.5 -138.5t140 -89.5t173.5 -32q168 0 266 105v-158q0 -123 -72 -197.5t-194 -74.5q-102 0 -166 47t-93 133h-176q14 -82 53.5 -146.5t96.5 -109.5t129 -68.5t156 -23.5q92 0 172.5 29.5t140 87t93.5 138.5t34 185v1133h-174v-639 q0 -119 -72 -196t-194 -77q-123 0 -196 77t-73 196v639h-172v-639zM309 1217h189v202h-189v-202zM655 1217h187v202h-187v-202z" />
<glyph unicode="&#x152;" horiz-adv-x="2369" d="M82 717q0 -156 55.5 -291t151.5 -235.5t225 -158t274 -57.5q180 0 324.5 85t237.5 229q35 -139 142 -214t267 -75h504v168h-504q-123 0 -188.5 66.5t-65.5 191.5v205h668v162h-668v202q0 127 65.5 193.5t188.5 66.5h504v166h-504q-156 0 -261 -70.5t-146 -205.5 q-90 143 -234.5 228t-329.5 85q-145 0 -274 -57.5t-225 -157.5t-151.5 -235.5t-55.5 -290.5zM256 717q0 121 42 225.5t114.5 182t169 121.5t206.5 44q111 0 208.5 -43t169 -119.5t112.5 -181t41 -227.5q0 -121 -42 -226.5t-113.5 -183.5t-168 -122t-207.5 -44t-207 44 t-168.5 121t-114.5 182.5t-42 226.5z" />
<glyph unicode="&#x153;" horiz-adv-x="2076" d="M72 526q0 -115 41 -215t112.5 -175t167.5 -118t209 -43q154 0 266.5 74t175.5 197q66 -123 184 -197t269 -74q184 0 315.5 89.5t190.5 263.5h-184q-47 -94 -128 -144.5t-194 -50.5q-90 0 -172 44t-135 128l813 342q-25 102 -76 183t-120.5 136.5t-151.5 85t-168 29.5 q-147 0 -262 -75.5t-181 -198.5q-63 123 -175.5 198.5t-266.5 75.5q-113 0 -209 -44t-167.5 -118.5t-112.5 -176t-41 -216.5zM246 526q0 82 27.5 154t76.5 125t113.5 85t138.5 32t138.5 -32t113.5 -85t76.5 -125t27.5 -154t-27.5 -152.5t-76.5 -123.5t-113.5 -84t-138.5 -31 t-138.5 31t-113.5 84t-76.5 123.5t-27.5 152.5zM1133 489v39q0 92 31.5 166t81.5 124t113.5 78t127.5 28q98 0 177 -52.5t128 -142.5l-655 -276q-4 18 -4 36z" />
<glyph unicode="&#x178;" horiz-adv-x="1202" d="M106 1030q0 -96 30 -180t84 -149.5t129 -109.5t167 -59v-532h174v535q90 14 165 58t128 109.5t83 149.5t30 178v391h-174v-391q0 -70 -21.5 -130t-63.5 -106t-101.5 -73t-133.5 -27t-133 27t-101 73t-65.5 106.5t-23.5 129.5v391h-173v-391zM334 1585h188v205h-188v-205z M680 1585h186v205h-186v-205z" />
<glyph unicode="&#x2c6;" horiz-adv-x="854" d="M147 1235h148l131 166l131 -166h150l-215 260h-132z" />
<glyph unicode="&#x2dc;" horiz-adv-x="854" d="M86 1241h98q4 37 26.5 63.5t59.5 26.5q31 0 65 -12t69.5 -27.5t74.5 -28t80 -12.5q49 0 87 18.5t63.5 48.5t40 68.5t18.5 79.5h-98q-4 -37 -26.5 -62.5t-59.5 -25.5q-31 0 -64 12.5t-67.5 28t-74.5 27.5t-83 12q-51 0 -89 -18.5t-63.5 -49t-40 -69.5t-16.5 -80z" />
<glyph unicode="&#x2000;" horiz-adv-x="982" />
<glyph unicode="&#x2001;" horiz-adv-x="1964" />
<glyph unicode="&#x2002;" horiz-adv-x="982" />
<glyph unicode="&#x2003;" horiz-adv-x="1964" />
<glyph unicode="&#x2004;" horiz-adv-x="654" />
<glyph unicode="&#x2005;" horiz-adv-x="491" />
<glyph unicode="&#x2006;" horiz-adv-x="327" />
<glyph unicode="&#x2007;" horiz-adv-x="327" />
<glyph unicode="&#x2008;" horiz-adv-x="245" />
<glyph unicode="&#x2009;" horiz-adv-x="392" />
<glyph unicode="&#x200a;" horiz-adv-x="109" />
<glyph unicode="&#x2010;" horiz-adv-x="735" d="M90 481h555v168h-555v-168z" />
<glyph unicode="&#x2011;" horiz-adv-x="735" d="M90 481h555v168h-555v-168z" />
<glyph unicode="&#x2012;" horiz-adv-x="735" d="M90 481h555v168h-555v-168z" />
<glyph unicode="&#x2013;" horiz-adv-x="1292" d="M90 481h1112v168h-1112v-168z" />
<glyph unicode="&#x2014;" horiz-adv-x="1998" d="M90 481h1821v168h-1821v-168z" />
<glyph unicode="&#x2018;" horiz-adv-x="374" d="M86 963h205v211h-117v47q0 53 26.5 85.5t75.5 41.5v90q-37 -4 -70.5 -18.5t-60 -41t-43 -66.5t-16.5 -91v-258z" />
<glyph unicode="&#x2019;" horiz-adv-x="366" d="M78 1210h115v-47q0 -53 -27 -86t-76 -41v-90q37 4 71 18.5t61.5 41t44 65.5t16.5 92v258h-205v-211z" />
<glyph unicode="&#x201a;" horiz-adv-x="366" d="M78 0h115v-47q0 -53 -27 -86t-76 -41v-90q37 4 71 18.5t61.5 41t44 65.5t16.5 92v258h-205v-211z" />
<glyph unicode="&#x201c;" horiz-adv-x="696" d="M86 963h205v211h-117v47q0 53 26.5 85.5t75.5 41.5v90q-35 -4 -69.5 -18.5t-61 -41t-43 -66.5t-16.5 -91v-258zM406 963h204v211h-114v47q0 53 25.5 85.5t74.5 41.5v90q-35 -4 -69.5 -18.5t-61.5 -41t-43 -66.5t-16 -91v-258z" />
<glyph unicode="&#x201d;" horiz-adv-x="686" d="M78 1210h115v-47q0 -53 -27 -86t-76 -41v-90q37 4 71 18.5t61.5 41t44 65.5t16.5 92v258h-205v-211zM395 1210h117v-47q0 -53 -25.5 -86t-76.5 -41v-90q37 4 70.5 18.5t61 41t44 65.5t16.5 92v258h-207v-211z" />
<glyph unicode="&#x201e;" horiz-adv-x="686" d="M78 0h115v-47q0 -53 -27 -86t-76 -41v-90q37 4 71 18.5t61.5 41t44 65.5t16.5 92v258h-205v-211zM395 0h117v-47q0 -53 -25.5 -86t-76.5 -41v-90q37 4 70.5 18.5t61 41t44 65.5t16.5 92v258h-207v-211z" />
<glyph unicode="&#x2022;" horiz-adv-x="641" d="M102 748q0 -47 17.5 -87t46.5 -69t69 -46.5t87 -17.5q45 0 83.5 17.5t68.5 46.5t47.5 68.5t17.5 87.5q0 45 -17.5 83.5t-47.5 68.5t-68.5 47.5t-83.5 17.5q-47 0 -87 -17.5t-69 -47.5t-46.5 -68.5t-17.5 -83.5z" />
<glyph unicode="&#x2026;" horiz-adv-x="1767" d="M102 0h174v180h-174v-180zM797 0h172v180h-172v-180zM1491 0h174v180h-174v-180z" />
<glyph unicode="&#x202f;" horiz-adv-x="392" />
<glyph unicode="&#x2039;" horiz-adv-x="430" d="M47 545l324 -279v180l-205 168l205 164v183l-324 -279v-137z" />
<glyph unicode="&#x203a;" horiz-adv-x="430" d="M59 266l326 279v137l-326 279v-183l205 -164l-205 -168v-180z" />
<glyph unicode="&#x205f;" horiz-adv-x="491" />
<glyph unicode="&#x2122;" horiz-adv-x="1837" d="M68 1288h256v-760h141v760h252v133h-649v-133zM809 528h143v646l236 -646h143l238 646v-646h141v893h-188l-262 -719l-261 719h-190v-893z" />
<glyph unicode="&#x25fc;" horiz-adv-x="1054" d="M0 0v1055h1055v-1055h-1055z" />
</font>
</defs>
</svg>
